M48
;GenerationSoftware,Autodesk,EAGLE,9.3.1*%
;CreationDate,2019-05-15T07:12:23Z*%
FMAT,2
ICI,OFF
METRIC,TZ,000.000
T5C0.305
T4C0.400
T3C0.500
T2C0.889
T1C3.000
%
G90
M71
T1
X4680Y4680
X4680Y45320
X106280Y4680
X106280Y45320
T2
X109460Y16110
X109460Y33890
X109460Y31350
X109460Y28810
X109460Y26270
X109460Y23730
X109460Y21190
X109460Y18650
T3
X65222Y23749
X71191Y25070
X73223Y25019
X75001Y25070
X76703Y25070
X12390Y23876
X13406Y25908
X10358Y23876
X11374Y25908
X67254Y26289
X66238Y24511
T4
X68905Y25019
T5
X110109Y17374
X86411Y17424
X87605Y21387
X90348Y21844
X90322Y24638
X92278Y28651
X103632Y30023
X104902Y27203
X106401Y17374
X106401Y22200
X98501Y7772
X95326Y42189
X98501Y21895
X107467Y22301
X99492Y7772
X95250Y43180
X99492Y26060
X100103Y28956
X100089Y23152
X108179Y24790
X97206Y19152
X94652Y27889
X100127Y27330
X90297Y45490
X103886Y27203
X103480Y23927
X103454Y25629
X102616Y30505
X103378Y31267
X101854Y31013
X100330Y30251
X88697Y46152
X97790Y30505
X110084Y27559
X97638Y20803
X85344Y16688
X105207Y17323
X104521Y16662
X87020Y45568
M30