G04 EAGLE Gerber RS-274X export*
G75*
%MOMM*%
%FSLAX34Y34*%
%LPD*%
%INSilkscreen Top*%
%IPPOS*%
%AMOC8*
5,1,8,0,0,1.08239X$1,22.5*%
G01*
%ADD10C,0.101600*%
%ADD11C,0.076200*%
%ADD12C,0.203200*%
%ADD13C,0.127000*%
%ADD14R,0.300000X0.300000*%
%ADD15C,0.200000*%
%ADD16C,0.600000*%
%ADD17C,0.050800*%
%ADD18C,0.152400*%
%ADD19C,0.400000*%
%ADD20C,0.254000*%
%ADD21R,0.150000X0.300000*%


D10*
X1057536Y341129D02*
X1056010Y342654D01*
X1052960Y342654D01*
X1051434Y341129D01*
X1051434Y335027D01*
X1052960Y333502D01*
X1056010Y333502D01*
X1057536Y335027D01*
X1057536Y338078D01*
X1054485Y338078D01*
X1060790Y333502D02*
X1060790Y342654D01*
X1066891Y333502D01*
X1066891Y342654D01*
X1070145Y342654D02*
X1070145Y333502D01*
X1074721Y333502D01*
X1076246Y335027D01*
X1076246Y341129D01*
X1074721Y342654D01*
X1070145Y342654D01*
X1052960Y317254D02*
X1051434Y315729D01*
X1052960Y317254D02*
X1056010Y317254D01*
X1057536Y315729D01*
X1057536Y314203D01*
X1056010Y312678D01*
X1054485Y312678D01*
X1056010Y312678D02*
X1057536Y311153D01*
X1057536Y309627D01*
X1056010Y308102D01*
X1052960Y308102D01*
X1051434Y309627D01*
X1060790Y311153D02*
X1060790Y317254D01*
X1060790Y311153D02*
X1063840Y308102D01*
X1066891Y311153D01*
X1066891Y317254D01*
X1070145Y315729D02*
X1071670Y317254D01*
X1074721Y317254D01*
X1076246Y315729D01*
X1076246Y314203D01*
X1074721Y312678D01*
X1073195Y312678D01*
X1074721Y312678D02*
X1076246Y311153D01*
X1076246Y309627D01*
X1074721Y308102D01*
X1071670Y308102D01*
X1070145Y309627D01*
X1056010Y292108D02*
X1057536Y290583D01*
X1056010Y292108D02*
X1052960Y292108D01*
X1051434Y290583D01*
X1051434Y289057D01*
X1052960Y287532D01*
X1056010Y287532D01*
X1057536Y286007D01*
X1057536Y284481D01*
X1056010Y282956D01*
X1052960Y282956D01*
X1051434Y284481D01*
X1060790Y282956D02*
X1060790Y292108D01*
X1060790Y282956D02*
X1065366Y282956D01*
X1066891Y284481D01*
X1066891Y290583D01*
X1065366Y292108D01*
X1060790Y292108D01*
X1070145Y289057D02*
X1070145Y282956D01*
X1070145Y289057D02*
X1073195Y292108D01*
X1076246Y289057D01*
X1076246Y282956D01*
X1076246Y287532D02*
X1070145Y287532D01*
X1056010Y266708D02*
X1057536Y265183D01*
X1056010Y266708D02*
X1052960Y266708D01*
X1051434Y265183D01*
X1051434Y263657D01*
X1052960Y262132D01*
X1056010Y262132D01*
X1057536Y260607D01*
X1057536Y259081D01*
X1056010Y257556D01*
X1052960Y257556D01*
X1051434Y259081D01*
X1065366Y266708D02*
X1066891Y265183D01*
X1065366Y266708D02*
X1062315Y266708D01*
X1060790Y265183D01*
X1060790Y259081D01*
X1062315Y257556D01*
X1065366Y257556D01*
X1066891Y259081D01*
X1070145Y257556D02*
X1070145Y266708D01*
X1070145Y257556D02*
X1076246Y257556D01*
X1057536Y239529D02*
X1056010Y241054D01*
X1052960Y241054D01*
X1051434Y239529D01*
X1051434Y238003D01*
X1052960Y236478D01*
X1056010Y236478D01*
X1057536Y234953D01*
X1057536Y233427D01*
X1056010Y231902D01*
X1052960Y231902D01*
X1051434Y233427D01*
X1065366Y241054D02*
X1066891Y239529D01*
X1065366Y241054D02*
X1062315Y241054D01*
X1060790Y239529D01*
X1060790Y233427D01*
X1062315Y231902D01*
X1065366Y231902D01*
X1066891Y233427D01*
X1070145Y231902D02*
X1070145Y241054D01*
X1070145Y234953D02*
X1076246Y241054D01*
X1071670Y236478D02*
X1076246Y231902D01*
X1045198Y215908D02*
X1045198Y206756D01*
X1048248Y212857D02*
X1045198Y215908D01*
X1048248Y212857D02*
X1051299Y215908D01*
X1051299Y206756D01*
X1056078Y215908D02*
X1059129Y215908D01*
X1056078Y215908D02*
X1054553Y214383D01*
X1054553Y208281D01*
X1056078Y206756D01*
X1059129Y206756D01*
X1060654Y208281D01*
X1060654Y214383D01*
X1059129Y215908D01*
X1068484Y215908D02*
X1070009Y214383D01*
X1068484Y215908D02*
X1065433Y215908D01*
X1063908Y214383D01*
X1063908Y212857D01*
X1065433Y211332D01*
X1068484Y211332D01*
X1070009Y209807D01*
X1070009Y208281D01*
X1068484Y206756D01*
X1065433Y206756D01*
X1063908Y208281D01*
X1073263Y206756D02*
X1076314Y206756D01*
X1074788Y206756D02*
X1074788Y215908D01*
X1073263Y215908D02*
X1076314Y215908D01*
X1057603Y181102D02*
X1054553Y181102D01*
X1056078Y181102D02*
X1056078Y190254D01*
X1054553Y190254D02*
X1057603Y190254D01*
X1060790Y190254D02*
X1060790Y181102D01*
X1060790Y190254D02*
X1065366Y190254D01*
X1066891Y188729D01*
X1066891Y185678D01*
X1065366Y184153D01*
X1060790Y184153D01*
X1063840Y184153D02*
X1066891Y181102D01*
X1070145Y182627D02*
X1070145Y188729D01*
X1071670Y190254D01*
X1074721Y190254D01*
X1076246Y188729D01*
X1076246Y182627D01*
X1074721Y181102D01*
X1071670Y181102D01*
X1070145Y182627D01*
X1073195Y184153D02*
X1076246Y181102D01*
X1051434Y164854D02*
X1051434Y155702D01*
X1051434Y164854D02*
X1056010Y164854D01*
X1057536Y163329D01*
X1057536Y160278D01*
X1056010Y158753D01*
X1051434Y158753D01*
X1054485Y158753D02*
X1057536Y155702D01*
X1065366Y164854D02*
X1066891Y163329D01*
X1065366Y164854D02*
X1062315Y164854D01*
X1060790Y163329D01*
X1060790Y161803D01*
X1062315Y160278D01*
X1065366Y160278D01*
X1066891Y158753D01*
X1066891Y157227D01*
X1065366Y155702D01*
X1062315Y155702D01*
X1060790Y157227D01*
X1073195Y155702D02*
X1073195Y164854D01*
X1070145Y164854D02*
X1076246Y164854D01*
D11*
X962279Y69687D02*
X962279Y63417D01*
X962279Y69687D02*
X963847Y71255D01*
X966982Y71255D01*
X968550Y69687D01*
X968550Y63417D01*
X966982Y61849D01*
X963847Y61849D01*
X962279Y63417D01*
X965414Y64984D02*
X968550Y61849D01*
X971634Y63417D02*
X971634Y68120D01*
X971634Y63417D02*
X973202Y61849D01*
X974770Y63417D01*
X976337Y61849D01*
X977905Y63417D01*
X977905Y68120D01*
X980989Y68120D02*
X982557Y68120D01*
X982557Y61849D01*
X980989Y61849D02*
X984125Y61849D01*
X982557Y71255D02*
X982557Y72823D01*
X987226Y68120D02*
X988794Y68120D01*
X988794Y61849D01*
X987226Y61849D02*
X990362Y61849D01*
X988794Y71255D02*
X988794Y72823D01*
X995031Y68120D02*
X999734Y68120D01*
X995031Y68120D02*
X993463Y66552D01*
X993463Y63417D01*
X995031Y61849D01*
X999734Y61849D01*
X997839Y430947D02*
X997839Y437217D01*
X997839Y430947D02*
X996271Y429379D01*
X993136Y429379D01*
X991568Y430947D01*
X991568Y437217D01*
X993136Y438785D01*
X996271Y438785D01*
X997839Y437217D01*
X994704Y435650D02*
X991568Y438785D01*
X988484Y437217D02*
X988484Y432514D01*
X988484Y437217D02*
X986916Y438785D01*
X985348Y437217D01*
X983781Y438785D01*
X982213Y437217D01*
X982213Y432514D01*
X979129Y432514D02*
X977561Y432514D01*
X977561Y438785D01*
X979129Y438785D02*
X975993Y438785D01*
X977561Y429379D02*
X977561Y427811D01*
X972892Y432514D02*
X971324Y432514D01*
X971324Y438785D01*
X969757Y438785D02*
X972892Y438785D01*
X971324Y429379D02*
X971324Y427811D01*
X965087Y432514D02*
X960384Y432514D01*
X965087Y432514D02*
X966655Y434082D01*
X966655Y437217D01*
X965087Y438785D01*
X960384Y438785D01*
X861784Y469773D02*
X854412Y469773D01*
X861784Y469773D02*
X861784Y466087D01*
X860555Y464858D01*
X858098Y464858D01*
X856869Y466087D01*
X856869Y469773D01*
X856869Y461060D02*
X856869Y458603D01*
X858098Y457374D01*
X860555Y457374D01*
X861784Y458603D01*
X861784Y461060D01*
X860555Y462289D01*
X858098Y462289D01*
X856869Y461060D01*
X858098Y454805D02*
X861784Y454805D01*
X858098Y454805D02*
X856869Y453576D01*
X858098Y452347D01*
X856869Y451119D01*
X858098Y449890D01*
X861784Y449890D01*
X856869Y446092D02*
X856869Y443634D01*
X856869Y446092D02*
X858098Y447321D01*
X860555Y447321D01*
X861784Y446092D01*
X861784Y443634D01*
X860555Y442406D01*
X859326Y442406D01*
X859326Y447321D01*
X856869Y439836D02*
X861784Y439836D01*
X861784Y437379D02*
X859326Y439836D01*
X861784Y437379D02*
X861784Y436150D01*
D12*
X891700Y270350D02*
X891700Y250350D01*
X854700Y250350D01*
X854700Y270350D01*
X891700Y270350D01*
X891700Y242410D02*
X891700Y222410D01*
X854700Y222410D01*
X854700Y242410D01*
X891700Y242410D01*
D13*
X758860Y261580D02*
X758860Y289520D01*
X758860Y261580D02*
X746160Y261580D01*
X746160Y289520D01*
X758860Y289520D01*
X758860Y237530D02*
X758860Y209590D01*
X746160Y209590D01*
X746160Y237530D01*
X758860Y237530D01*
X779140Y261580D02*
X779140Y289520D01*
X779140Y261580D02*
X766440Y261580D01*
X766440Y289520D01*
X779140Y289520D01*
X779140Y237530D02*
X779140Y209590D01*
X766440Y209590D01*
X766440Y237530D01*
X779140Y237530D01*
X738580Y261580D02*
X738580Y289520D01*
X738580Y261580D02*
X725880Y261580D01*
X725880Y289520D01*
X738580Y289520D01*
X738580Y237530D02*
X738580Y209590D01*
X725880Y209590D01*
X725880Y237530D01*
X738580Y237530D01*
X718300Y261580D02*
X718300Y289520D01*
X718300Y261580D02*
X705600Y261580D01*
X705600Y289520D01*
X718300Y289520D01*
X718300Y237530D02*
X718300Y209590D01*
X705600Y209590D01*
X705600Y237530D01*
X718300Y237530D01*
D12*
X807780Y281760D02*
X807782Y281932D01*
X807788Y282103D01*
X807799Y282275D01*
X807814Y282446D01*
X807833Y282617D01*
X807856Y282787D01*
X807883Y282957D01*
X807915Y283126D01*
X807950Y283294D01*
X807990Y283461D01*
X808034Y283627D01*
X808081Y283792D01*
X808133Y283956D01*
X808189Y284118D01*
X808249Y284279D01*
X808313Y284439D01*
X808381Y284597D01*
X808452Y284753D01*
X808527Y284907D01*
X808607Y285060D01*
X808689Y285210D01*
X808776Y285359D01*
X808866Y285505D01*
X808960Y285649D01*
X809057Y285791D01*
X809158Y285930D01*
X809262Y286067D01*
X809369Y286201D01*
X809480Y286332D01*
X809593Y286461D01*
X809710Y286587D01*
X809830Y286710D01*
X809953Y286830D01*
X810079Y286947D01*
X810208Y287060D01*
X810339Y287171D01*
X810473Y287278D01*
X810610Y287382D01*
X810749Y287483D01*
X810891Y287580D01*
X811035Y287674D01*
X811181Y287764D01*
X811330Y287851D01*
X811480Y287933D01*
X811633Y288013D01*
X811787Y288088D01*
X811943Y288159D01*
X812101Y288227D01*
X812261Y288291D01*
X812422Y288351D01*
X812584Y288407D01*
X812748Y288459D01*
X812913Y288506D01*
X813079Y288550D01*
X813246Y288590D01*
X813414Y288625D01*
X813583Y288657D01*
X813753Y288684D01*
X813923Y288707D01*
X814094Y288726D01*
X814265Y288741D01*
X814437Y288752D01*
X814608Y288758D01*
X814780Y288760D01*
X814952Y288758D01*
X815123Y288752D01*
X815295Y288741D01*
X815466Y288726D01*
X815637Y288707D01*
X815807Y288684D01*
X815977Y288657D01*
X816146Y288625D01*
X816314Y288590D01*
X816481Y288550D01*
X816647Y288506D01*
X816812Y288459D01*
X816976Y288407D01*
X817138Y288351D01*
X817299Y288291D01*
X817459Y288227D01*
X817617Y288159D01*
X817773Y288088D01*
X817927Y288013D01*
X818080Y287933D01*
X818230Y287851D01*
X818379Y287764D01*
X818525Y287674D01*
X818669Y287580D01*
X818811Y287483D01*
X818950Y287382D01*
X819087Y287278D01*
X819221Y287171D01*
X819352Y287060D01*
X819481Y286947D01*
X819607Y286830D01*
X819730Y286710D01*
X819850Y286587D01*
X819967Y286461D01*
X820080Y286332D01*
X820191Y286201D01*
X820298Y286067D01*
X820402Y285930D01*
X820503Y285791D01*
X820600Y285649D01*
X820694Y285505D01*
X820784Y285359D01*
X820871Y285210D01*
X820953Y285060D01*
X821033Y284907D01*
X821108Y284753D01*
X821179Y284597D01*
X821247Y284439D01*
X821311Y284279D01*
X821371Y284118D01*
X821427Y283956D01*
X821479Y283792D01*
X821526Y283627D01*
X821570Y283461D01*
X821610Y283294D01*
X821645Y283126D01*
X821677Y282957D01*
X821704Y282787D01*
X821727Y282617D01*
X821746Y282446D01*
X821761Y282275D01*
X821772Y282103D01*
X821778Y281932D01*
X821780Y281760D01*
X821778Y281588D01*
X821772Y281417D01*
X821761Y281245D01*
X821746Y281074D01*
X821727Y280903D01*
X821704Y280733D01*
X821677Y280563D01*
X821645Y280394D01*
X821610Y280226D01*
X821570Y280059D01*
X821526Y279893D01*
X821479Y279728D01*
X821427Y279564D01*
X821371Y279402D01*
X821311Y279241D01*
X821247Y279081D01*
X821179Y278923D01*
X821108Y278767D01*
X821033Y278613D01*
X820953Y278460D01*
X820871Y278310D01*
X820784Y278161D01*
X820694Y278015D01*
X820600Y277871D01*
X820503Y277729D01*
X820402Y277590D01*
X820298Y277453D01*
X820191Y277319D01*
X820080Y277188D01*
X819967Y277059D01*
X819850Y276933D01*
X819730Y276810D01*
X819607Y276690D01*
X819481Y276573D01*
X819352Y276460D01*
X819221Y276349D01*
X819087Y276242D01*
X818950Y276138D01*
X818811Y276037D01*
X818669Y275940D01*
X818525Y275846D01*
X818379Y275756D01*
X818230Y275669D01*
X818080Y275587D01*
X817927Y275507D01*
X817773Y275432D01*
X817617Y275361D01*
X817459Y275293D01*
X817299Y275229D01*
X817138Y275169D01*
X816976Y275113D01*
X816812Y275061D01*
X816647Y275014D01*
X816481Y274970D01*
X816314Y274930D01*
X816146Y274895D01*
X815977Y274863D01*
X815807Y274836D01*
X815637Y274813D01*
X815466Y274794D01*
X815295Y274779D01*
X815123Y274768D01*
X814952Y274762D01*
X814780Y274760D01*
X814608Y274762D01*
X814437Y274768D01*
X814265Y274779D01*
X814094Y274794D01*
X813923Y274813D01*
X813753Y274836D01*
X813583Y274863D01*
X813414Y274895D01*
X813246Y274930D01*
X813079Y274970D01*
X812913Y275014D01*
X812748Y275061D01*
X812584Y275113D01*
X812422Y275169D01*
X812261Y275229D01*
X812101Y275293D01*
X811943Y275361D01*
X811787Y275432D01*
X811633Y275507D01*
X811480Y275587D01*
X811330Y275669D01*
X811181Y275756D01*
X811035Y275846D01*
X810891Y275940D01*
X810749Y276037D01*
X810610Y276138D01*
X810473Y276242D01*
X810339Y276349D01*
X810208Y276460D01*
X810079Y276573D01*
X809953Y276690D01*
X809830Y276810D01*
X809710Y276933D01*
X809593Y277059D01*
X809480Y277188D01*
X809369Y277319D01*
X809262Y277453D01*
X809158Y277590D01*
X809057Y277729D01*
X808960Y277871D01*
X808866Y278015D01*
X808776Y278161D01*
X808689Y278310D01*
X808607Y278460D01*
X808527Y278613D01*
X808452Y278767D01*
X808381Y278923D01*
X808313Y279081D01*
X808249Y279241D01*
X808189Y279402D01*
X808133Y279564D01*
X808081Y279728D01*
X808034Y279893D01*
X807990Y280059D01*
X807950Y280226D01*
X807915Y280394D01*
X807883Y280563D01*
X807856Y280733D01*
X807833Y280903D01*
X807814Y281074D01*
X807799Y281245D01*
X807788Y281417D01*
X807782Y281588D01*
X807780Y281760D01*
X807780Y250730D02*
X807782Y250902D01*
X807788Y251073D01*
X807799Y251245D01*
X807814Y251416D01*
X807833Y251587D01*
X807856Y251757D01*
X807883Y251927D01*
X807915Y252096D01*
X807950Y252264D01*
X807990Y252431D01*
X808034Y252597D01*
X808081Y252762D01*
X808133Y252926D01*
X808189Y253088D01*
X808249Y253249D01*
X808313Y253409D01*
X808381Y253567D01*
X808452Y253723D01*
X808527Y253877D01*
X808607Y254030D01*
X808689Y254180D01*
X808776Y254329D01*
X808866Y254475D01*
X808960Y254619D01*
X809057Y254761D01*
X809158Y254900D01*
X809262Y255037D01*
X809369Y255171D01*
X809480Y255302D01*
X809593Y255431D01*
X809710Y255557D01*
X809830Y255680D01*
X809953Y255800D01*
X810079Y255917D01*
X810208Y256030D01*
X810339Y256141D01*
X810473Y256248D01*
X810610Y256352D01*
X810749Y256453D01*
X810891Y256550D01*
X811035Y256644D01*
X811181Y256734D01*
X811330Y256821D01*
X811480Y256903D01*
X811633Y256983D01*
X811787Y257058D01*
X811943Y257129D01*
X812101Y257197D01*
X812261Y257261D01*
X812422Y257321D01*
X812584Y257377D01*
X812748Y257429D01*
X812913Y257476D01*
X813079Y257520D01*
X813246Y257560D01*
X813414Y257595D01*
X813583Y257627D01*
X813753Y257654D01*
X813923Y257677D01*
X814094Y257696D01*
X814265Y257711D01*
X814437Y257722D01*
X814608Y257728D01*
X814780Y257730D01*
X814952Y257728D01*
X815123Y257722D01*
X815295Y257711D01*
X815466Y257696D01*
X815637Y257677D01*
X815807Y257654D01*
X815977Y257627D01*
X816146Y257595D01*
X816314Y257560D01*
X816481Y257520D01*
X816647Y257476D01*
X816812Y257429D01*
X816976Y257377D01*
X817138Y257321D01*
X817299Y257261D01*
X817459Y257197D01*
X817617Y257129D01*
X817773Y257058D01*
X817927Y256983D01*
X818080Y256903D01*
X818230Y256821D01*
X818379Y256734D01*
X818525Y256644D01*
X818669Y256550D01*
X818811Y256453D01*
X818950Y256352D01*
X819087Y256248D01*
X819221Y256141D01*
X819352Y256030D01*
X819481Y255917D01*
X819607Y255800D01*
X819730Y255680D01*
X819850Y255557D01*
X819967Y255431D01*
X820080Y255302D01*
X820191Y255171D01*
X820298Y255037D01*
X820402Y254900D01*
X820503Y254761D01*
X820600Y254619D01*
X820694Y254475D01*
X820784Y254329D01*
X820871Y254180D01*
X820953Y254030D01*
X821033Y253877D01*
X821108Y253723D01*
X821179Y253567D01*
X821247Y253409D01*
X821311Y253249D01*
X821371Y253088D01*
X821427Y252926D01*
X821479Y252762D01*
X821526Y252597D01*
X821570Y252431D01*
X821610Y252264D01*
X821645Y252096D01*
X821677Y251927D01*
X821704Y251757D01*
X821727Y251587D01*
X821746Y251416D01*
X821761Y251245D01*
X821772Y251073D01*
X821778Y250902D01*
X821780Y250730D01*
X821778Y250558D01*
X821772Y250387D01*
X821761Y250215D01*
X821746Y250044D01*
X821727Y249873D01*
X821704Y249703D01*
X821677Y249533D01*
X821645Y249364D01*
X821610Y249196D01*
X821570Y249029D01*
X821526Y248863D01*
X821479Y248698D01*
X821427Y248534D01*
X821371Y248372D01*
X821311Y248211D01*
X821247Y248051D01*
X821179Y247893D01*
X821108Y247737D01*
X821033Y247583D01*
X820953Y247430D01*
X820871Y247280D01*
X820784Y247131D01*
X820694Y246985D01*
X820600Y246841D01*
X820503Y246699D01*
X820402Y246560D01*
X820298Y246423D01*
X820191Y246289D01*
X820080Y246158D01*
X819967Y246029D01*
X819850Y245903D01*
X819730Y245780D01*
X819607Y245660D01*
X819481Y245543D01*
X819352Y245430D01*
X819221Y245319D01*
X819087Y245212D01*
X818950Y245108D01*
X818811Y245007D01*
X818669Y244910D01*
X818525Y244816D01*
X818379Y244726D01*
X818230Y244639D01*
X818080Y244557D01*
X817927Y244477D01*
X817773Y244402D01*
X817617Y244331D01*
X817459Y244263D01*
X817299Y244199D01*
X817138Y244139D01*
X816976Y244083D01*
X816812Y244031D01*
X816647Y243984D01*
X816481Y243940D01*
X816314Y243900D01*
X816146Y243865D01*
X815977Y243833D01*
X815807Y243806D01*
X815637Y243783D01*
X815466Y243764D01*
X815295Y243749D01*
X815123Y243738D01*
X814952Y243732D01*
X814780Y243730D01*
X814608Y243732D01*
X814437Y243738D01*
X814265Y243749D01*
X814094Y243764D01*
X813923Y243783D01*
X813753Y243806D01*
X813583Y243833D01*
X813414Y243865D01*
X813246Y243900D01*
X813079Y243940D01*
X812913Y243984D01*
X812748Y244031D01*
X812584Y244083D01*
X812422Y244139D01*
X812261Y244199D01*
X812101Y244263D01*
X811943Y244331D01*
X811787Y244402D01*
X811633Y244477D01*
X811480Y244557D01*
X811330Y244639D01*
X811181Y244726D01*
X811035Y244816D01*
X810891Y244910D01*
X810749Y245007D01*
X810610Y245108D01*
X810473Y245212D01*
X810339Y245319D01*
X810208Y245430D01*
X810079Y245543D01*
X809953Y245660D01*
X809830Y245780D01*
X809710Y245903D01*
X809593Y246029D01*
X809480Y246158D01*
X809369Y246289D01*
X809262Y246423D01*
X809158Y246560D01*
X809057Y246699D01*
X808960Y246841D01*
X808866Y246985D01*
X808776Y247131D01*
X808689Y247280D01*
X808607Y247430D01*
X808527Y247583D01*
X808452Y247737D01*
X808381Y247893D01*
X808313Y248051D01*
X808249Y248211D01*
X808189Y248372D01*
X808133Y248534D01*
X808081Y248698D01*
X808034Y248863D01*
X807990Y249029D01*
X807950Y249196D01*
X807915Y249364D01*
X807883Y249533D01*
X807856Y249703D01*
X807833Y249873D01*
X807814Y250044D01*
X807799Y250215D01*
X807788Y250387D01*
X807782Y250558D01*
X807780Y250730D01*
X807780Y219700D02*
X807782Y219872D01*
X807788Y220043D01*
X807799Y220215D01*
X807814Y220386D01*
X807833Y220557D01*
X807856Y220727D01*
X807883Y220897D01*
X807915Y221066D01*
X807950Y221234D01*
X807990Y221401D01*
X808034Y221567D01*
X808081Y221732D01*
X808133Y221896D01*
X808189Y222058D01*
X808249Y222219D01*
X808313Y222379D01*
X808381Y222537D01*
X808452Y222693D01*
X808527Y222847D01*
X808607Y223000D01*
X808689Y223150D01*
X808776Y223299D01*
X808866Y223445D01*
X808960Y223589D01*
X809057Y223731D01*
X809158Y223870D01*
X809262Y224007D01*
X809369Y224141D01*
X809480Y224272D01*
X809593Y224401D01*
X809710Y224527D01*
X809830Y224650D01*
X809953Y224770D01*
X810079Y224887D01*
X810208Y225000D01*
X810339Y225111D01*
X810473Y225218D01*
X810610Y225322D01*
X810749Y225423D01*
X810891Y225520D01*
X811035Y225614D01*
X811181Y225704D01*
X811330Y225791D01*
X811480Y225873D01*
X811633Y225953D01*
X811787Y226028D01*
X811943Y226099D01*
X812101Y226167D01*
X812261Y226231D01*
X812422Y226291D01*
X812584Y226347D01*
X812748Y226399D01*
X812913Y226446D01*
X813079Y226490D01*
X813246Y226530D01*
X813414Y226565D01*
X813583Y226597D01*
X813753Y226624D01*
X813923Y226647D01*
X814094Y226666D01*
X814265Y226681D01*
X814437Y226692D01*
X814608Y226698D01*
X814780Y226700D01*
X814952Y226698D01*
X815123Y226692D01*
X815295Y226681D01*
X815466Y226666D01*
X815637Y226647D01*
X815807Y226624D01*
X815977Y226597D01*
X816146Y226565D01*
X816314Y226530D01*
X816481Y226490D01*
X816647Y226446D01*
X816812Y226399D01*
X816976Y226347D01*
X817138Y226291D01*
X817299Y226231D01*
X817459Y226167D01*
X817617Y226099D01*
X817773Y226028D01*
X817927Y225953D01*
X818080Y225873D01*
X818230Y225791D01*
X818379Y225704D01*
X818525Y225614D01*
X818669Y225520D01*
X818811Y225423D01*
X818950Y225322D01*
X819087Y225218D01*
X819221Y225111D01*
X819352Y225000D01*
X819481Y224887D01*
X819607Y224770D01*
X819730Y224650D01*
X819850Y224527D01*
X819967Y224401D01*
X820080Y224272D01*
X820191Y224141D01*
X820298Y224007D01*
X820402Y223870D01*
X820503Y223731D01*
X820600Y223589D01*
X820694Y223445D01*
X820784Y223299D01*
X820871Y223150D01*
X820953Y223000D01*
X821033Y222847D01*
X821108Y222693D01*
X821179Y222537D01*
X821247Y222379D01*
X821311Y222219D01*
X821371Y222058D01*
X821427Y221896D01*
X821479Y221732D01*
X821526Y221567D01*
X821570Y221401D01*
X821610Y221234D01*
X821645Y221066D01*
X821677Y220897D01*
X821704Y220727D01*
X821727Y220557D01*
X821746Y220386D01*
X821761Y220215D01*
X821772Y220043D01*
X821778Y219872D01*
X821780Y219700D01*
X821778Y219528D01*
X821772Y219357D01*
X821761Y219185D01*
X821746Y219014D01*
X821727Y218843D01*
X821704Y218673D01*
X821677Y218503D01*
X821645Y218334D01*
X821610Y218166D01*
X821570Y217999D01*
X821526Y217833D01*
X821479Y217668D01*
X821427Y217504D01*
X821371Y217342D01*
X821311Y217181D01*
X821247Y217021D01*
X821179Y216863D01*
X821108Y216707D01*
X821033Y216553D01*
X820953Y216400D01*
X820871Y216250D01*
X820784Y216101D01*
X820694Y215955D01*
X820600Y215811D01*
X820503Y215669D01*
X820402Y215530D01*
X820298Y215393D01*
X820191Y215259D01*
X820080Y215128D01*
X819967Y214999D01*
X819850Y214873D01*
X819730Y214750D01*
X819607Y214630D01*
X819481Y214513D01*
X819352Y214400D01*
X819221Y214289D01*
X819087Y214182D01*
X818950Y214078D01*
X818811Y213977D01*
X818669Y213880D01*
X818525Y213786D01*
X818379Y213696D01*
X818230Y213609D01*
X818080Y213527D01*
X817927Y213447D01*
X817773Y213372D01*
X817617Y213301D01*
X817459Y213233D01*
X817299Y213169D01*
X817138Y213109D01*
X816976Y213053D01*
X816812Y213001D01*
X816647Y212954D01*
X816481Y212910D01*
X816314Y212870D01*
X816146Y212835D01*
X815977Y212803D01*
X815807Y212776D01*
X815637Y212753D01*
X815466Y212734D01*
X815295Y212719D01*
X815123Y212708D01*
X814952Y212702D01*
X814780Y212700D01*
X814608Y212702D01*
X814437Y212708D01*
X814265Y212719D01*
X814094Y212734D01*
X813923Y212753D01*
X813753Y212776D01*
X813583Y212803D01*
X813414Y212835D01*
X813246Y212870D01*
X813079Y212910D01*
X812913Y212954D01*
X812748Y213001D01*
X812584Y213053D01*
X812422Y213109D01*
X812261Y213169D01*
X812101Y213233D01*
X811943Y213301D01*
X811787Y213372D01*
X811633Y213447D01*
X811480Y213527D01*
X811330Y213609D01*
X811181Y213696D01*
X811035Y213786D01*
X810891Y213880D01*
X810749Y213977D01*
X810610Y214078D01*
X810473Y214182D01*
X810339Y214289D01*
X810208Y214400D01*
X810079Y214513D01*
X809953Y214630D01*
X809830Y214750D01*
X809710Y214873D01*
X809593Y214999D01*
X809480Y215128D01*
X809369Y215259D01*
X809262Y215393D01*
X809158Y215530D01*
X809057Y215669D01*
X808960Y215811D01*
X808866Y215955D01*
X808776Y216101D01*
X808689Y216250D01*
X808607Y216400D01*
X808527Y216553D01*
X808452Y216707D01*
X808381Y216863D01*
X808313Y217021D01*
X808249Y217181D01*
X808189Y217342D01*
X808133Y217504D01*
X808081Y217668D01*
X808034Y217833D01*
X807990Y217999D01*
X807950Y218166D01*
X807915Y218334D01*
X807883Y218503D01*
X807856Y218673D01*
X807833Y218843D01*
X807814Y219014D01*
X807799Y219185D01*
X807788Y219357D01*
X807782Y219528D01*
X807780Y219700D01*
X684670Y182870D02*
X684672Y183042D01*
X684678Y183213D01*
X684689Y183385D01*
X684704Y183556D01*
X684723Y183727D01*
X684746Y183897D01*
X684773Y184067D01*
X684805Y184236D01*
X684840Y184404D01*
X684880Y184571D01*
X684924Y184737D01*
X684971Y184902D01*
X685023Y185066D01*
X685079Y185228D01*
X685139Y185389D01*
X685203Y185549D01*
X685271Y185707D01*
X685342Y185863D01*
X685417Y186017D01*
X685497Y186170D01*
X685579Y186320D01*
X685666Y186469D01*
X685756Y186615D01*
X685850Y186759D01*
X685947Y186901D01*
X686048Y187040D01*
X686152Y187177D01*
X686259Y187311D01*
X686370Y187442D01*
X686483Y187571D01*
X686600Y187697D01*
X686720Y187820D01*
X686843Y187940D01*
X686969Y188057D01*
X687098Y188170D01*
X687229Y188281D01*
X687363Y188388D01*
X687500Y188492D01*
X687639Y188593D01*
X687781Y188690D01*
X687925Y188784D01*
X688071Y188874D01*
X688220Y188961D01*
X688370Y189043D01*
X688523Y189123D01*
X688677Y189198D01*
X688833Y189269D01*
X688991Y189337D01*
X689151Y189401D01*
X689312Y189461D01*
X689474Y189517D01*
X689638Y189569D01*
X689803Y189616D01*
X689969Y189660D01*
X690136Y189700D01*
X690304Y189735D01*
X690473Y189767D01*
X690643Y189794D01*
X690813Y189817D01*
X690984Y189836D01*
X691155Y189851D01*
X691327Y189862D01*
X691498Y189868D01*
X691670Y189870D01*
X691842Y189868D01*
X692013Y189862D01*
X692185Y189851D01*
X692356Y189836D01*
X692527Y189817D01*
X692697Y189794D01*
X692867Y189767D01*
X693036Y189735D01*
X693204Y189700D01*
X693371Y189660D01*
X693537Y189616D01*
X693702Y189569D01*
X693866Y189517D01*
X694028Y189461D01*
X694189Y189401D01*
X694349Y189337D01*
X694507Y189269D01*
X694663Y189198D01*
X694817Y189123D01*
X694970Y189043D01*
X695120Y188961D01*
X695269Y188874D01*
X695415Y188784D01*
X695559Y188690D01*
X695701Y188593D01*
X695840Y188492D01*
X695977Y188388D01*
X696111Y188281D01*
X696242Y188170D01*
X696371Y188057D01*
X696497Y187940D01*
X696620Y187820D01*
X696740Y187697D01*
X696857Y187571D01*
X696970Y187442D01*
X697081Y187311D01*
X697188Y187177D01*
X697292Y187040D01*
X697393Y186901D01*
X697490Y186759D01*
X697584Y186615D01*
X697674Y186469D01*
X697761Y186320D01*
X697843Y186170D01*
X697923Y186017D01*
X697998Y185863D01*
X698069Y185707D01*
X698137Y185549D01*
X698201Y185389D01*
X698261Y185228D01*
X698317Y185066D01*
X698369Y184902D01*
X698416Y184737D01*
X698460Y184571D01*
X698500Y184404D01*
X698535Y184236D01*
X698567Y184067D01*
X698594Y183897D01*
X698617Y183727D01*
X698636Y183556D01*
X698651Y183385D01*
X698662Y183213D01*
X698668Y183042D01*
X698670Y182870D01*
X698668Y182698D01*
X698662Y182527D01*
X698651Y182355D01*
X698636Y182184D01*
X698617Y182013D01*
X698594Y181843D01*
X698567Y181673D01*
X698535Y181504D01*
X698500Y181336D01*
X698460Y181169D01*
X698416Y181003D01*
X698369Y180838D01*
X698317Y180674D01*
X698261Y180512D01*
X698201Y180351D01*
X698137Y180191D01*
X698069Y180033D01*
X697998Y179877D01*
X697923Y179723D01*
X697843Y179570D01*
X697761Y179420D01*
X697674Y179271D01*
X697584Y179125D01*
X697490Y178981D01*
X697393Y178839D01*
X697292Y178700D01*
X697188Y178563D01*
X697081Y178429D01*
X696970Y178298D01*
X696857Y178169D01*
X696740Y178043D01*
X696620Y177920D01*
X696497Y177800D01*
X696371Y177683D01*
X696242Y177570D01*
X696111Y177459D01*
X695977Y177352D01*
X695840Y177248D01*
X695701Y177147D01*
X695559Y177050D01*
X695415Y176956D01*
X695269Y176866D01*
X695120Y176779D01*
X694970Y176697D01*
X694817Y176617D01*
X694663Y176542D01*
X694507Y176471D01*
X694349Y176403D01*
X694189Y176339D01*
X694028Y176279D01*
X693866Y176223D01*
X693702Y176171D01*
X693537Y176124D01*
X693371Y176080D01*
X693204Y176040D01*
X693036Y176005D01*
X692867Y175973D01*
X692697Y175946D01*
X692527Y175923D01*
X692356Y175904D01*
X692185Y175889D01*
X692013Y175878D01*
X691842Y175872D01*
X691670Y175870D01*
X691498Y175872D01*
X691327Y175878D01*
X691155Y175889D01*
X690984Y175904D01*
X690813Y175923D01*
X690643Y175946D01*
X690473Y175973D01*
X690304Y176005D01*
X690136Y176040D01*
X689969Y176080D01*
X689803Y176124D01*
X689638Y176171D01*
X689474Y176223D01*
X689312Y176279D01*
X689151Y176339D01*
X688991Y176403D01*
X688833Y176471D01*
X688677Y176542D01*
X688523Y176617D01*
X688370Y176697D01*
X688220Y176779D01*
X688071Y176866D01*
X687925Y176956D01*
X687781Y177050D01*
X687639Y177147D01*
X687500Y177248D01*
X687363Y177352D01*
X687229Y177459D01*
X687098Y177570D01*
X686969Y177683D01*
X686843Y177800D01*
X686720Y177920D01*
X686600Y178043D01*
X686483Y178169D01*
X686370Y178298D01*
X686259Y178429D01*
X686152Y178563D01*
X686048Y178700D01*
X685947Y178839D01*
X685850Y178981D01*
X685756Y179125D01*
X685666Y179271D01*
X685579Y179420D01*
X685497Y179570D01*
X685417Y179723D01*
X685342Y179877D01*
X685271Y180033D01*
X685203Y180191D01*
X685139Y180351D01*
X685079Y180512D01*
X685023Y180674D01*
X684971Y180838D01*
X684924Y181003D01*
X684880Y181169D01*
X684840Y181336D01*
X684805Y181504D01*
X684773Y181673D01*
X684746Y181843D01*
X684723Y182013D01*
X684704Y182184D01*
X684689Y182355D01*
X684678Y182527D01*
X684672Y182698D01*
X684670Y182870D01*
X684670Y318590D02*
X684672Y318762D01*
X684678Y318933D01*
X684689Y319105D01*
X684704Y319276D01*
X684723Y319447D01*
X684746Y319617D01*
X684773Y319787D01*
X684805Y319956D01*
X684840Y320124D01*
X684880Y320291D01*
X684924Y320457D01*
X684971Y320622D01*
X685023Y320786D01*
X685079Y320948D01*
X685139Y321109D01*
X685203Y321269D01*
X685271Y321427D01*
X685342Y321583D01*
X685417Y321737D01*
X685497Y321890D01*
X685579Y322040D01*
X685666Y322189D01*
X685756Y322335D01*
X685850Y322479D01*
X685947Y322621D01*
X686048Y322760D01*
X686152Y322897D01*
X686259Y323031D01*
X686370Y323162D01*
X686483Y323291D01*
X686600Y323417D01*
X686720Y323540D01*
X686843Y323660D01*
X686969Y323777D01*
X687098Y323890D01*
X687229Y324001D01*
X687363Y324108D01*
X687500Y324212D01*
X687639Y324313D01*
X687781Y324410D01*
X687925Y324504D01*
X688071Y324594D01*
X688220Y324681D01*
X688370Y324763D01*
X688523Y324843D01*
X688677Y324918D01*
X688833Y324989D01*
X688991Y325057D01*
X689151Y325121D01*
X689312Y325181D01*
X689474Y325237D01*
X689638Y325289D01*
X689803Y325336D01*
X689969Y325380D01*
X690136Y325420D01*
X690304Y325455D01*
X690473Y325487D01*
X690643Y325514D01*
X690813Y325537D01*
X690984Y325556D01*
X691155Y325571D01*
X691327Y325582D01*
X691498Y325588D01*
X691670Y325590D01*
X691842Y325588D01*
X692013Y325582D01*
X692185Y325571D01*
X692356Y325556D01*
X692527Y325537D01*
X692697Y325514D01*
X692867Y325487D01*
X693036Y325455D01*
X693204Y325420D01*
X693371Y325380D01*
X693537Y325336D01*
X693702Y325289D01*
X693866Y325237D01*
X694028Y325181D01*
X694189Y325121D01*
X694349Y325057D01*
X694507Y324989D01*
X694663Y324918D01*
X694817Y324843D01*
X694970Y324763D01*
X695120Y324681D01*
X695269Y324594D01*
X695415Y324504D01*
X695559Y324410D01*
X695701Y324313D01*
X695840Y324212D01*
X695977Y324108D01*
X696111Y324001D01*
X696242Y323890D01*
X696371Y323777D01*
X696497Y323660D01*
X696620Y323540D01*
X696740Y323417D01*
X696857Y323291D01*
X696970Y323162D01*
X697081Y323031D01*
X697188Y322897D01*
X697292Y322760D01*
X697393Y322621D01*
X697490Y322479D01*
X697584Y322335D01*
X697674Y322189D01*
X697761Y322040D01*
X697843Y321890D01*
X697923Y321737D01*
X697998Y321583D01*
X698069Y321427D01*
X698137Y321269D01*
X698201Y321109D01*
X698261Y320948D01*
X698317Y320786D01*
X698369Y320622D01*
X698416Y320457D01*
X698460Y320291D01*
X698500Y320124D01*
X698535Y319956D01*
X698567Y319787D01*
X698594Y319617D01*
X698617Y319447D01*
X698636Y319276D01*
X698651Y319105D01*
X698662Y318933D01*
X698668Y318762D01*
X698670Y318590D01*
X698668Y318418D01*
X698662Y318247D01*
X698651Y318075D01*
X698636Y317904D01*
X698617Y317733D01*
X698594Y317563D01*
X698567Y317393D01*
X698535Y317224D01*
X698500Y317056D01*
X698460Y316889D01*
X698416Y316723D01*
X698369Y316558D01*
X698317Y316394D01*
X698261Y316232D01*
X698201Y316071D01*
X698137Y315911D01*
X698069Y315753D01*
X697998Y315597D01*
X697923Y315443D01*
X697843Y315290D01*
X697761Y315140D01*
X697674Y314991D01*
X697584Y314845D01*
X697490Y314701D01*
X697393Y314559D01*
X697292Y314420D01*
X697188Y314283D01*
X697081Y314149D01*
X696970Y314018D01*
X696857Y313889D01*
X696740Y313763D01*
X696620Y313640D01*
X696497Y313520D01*
X696371Y313403D01*
X696242Y313290D01*
X696111Y313179D01*
X695977Y313072D01*
X695840Y312968D01*
X695701Y312867D01*
X695559Y312770D01*
X695415Y312676D01*
X695269Y312586D01*
X695120Y312499D01*
X694970Y312417D01*
X694817Y312337D01*
X694663Y312262D01*
X694507Y312191D01*
X694349Y312123D01*
X694189Y312059D01*
X694028Y311999D01*
X693866Y311943D01*
X693702Y311891D01*
X693537Y311844D01*
X693371Y311800D01*
X693204Y311760D01*
X693036Y311725D01*
X692867Y311693D01*
X692697Y311666D01*
X692527Y311643D01*
X692356Y311624D01*
X692185Y311609D01*
X692013Y311598D01*
X691842Y311592D01*
X691670Y311590D01*
X691498Y311592D01*
X691327Y311598D01*
X691155Y311609D01*
X690984Y311624D01*
X690813Y311643D01*
X690643Y311666D01*
X690473Y311693D01*
X690304Y311725D01*
X690136Y311760D01*
X689969Y311800D01*
X689803Y311844D01*
X689638Y311891D01*
X689474Y311943D01*
X689312Y311999D01*
X689151Y312059D01*
X688991Y312123D01*
X688833Y312191D01*
X688677Y312262D01*
X688523Y312337D01*
X688370Y312417D01*
X688220Y312499D01*
X688071Y312586D01*
X687925Y312676D01*
X687781Y312770D01*
X687639Y312867D01*
X687500Y312968D01*
X687363Y313072D01*
X687229Y313179D01*
X687098Y313290D01*
X686969Y313403D01*
X686843Y313520D01*
X686720Y313640D01*
X686600Y313763D01*
X686483Y313889D01*
X686370Y314018D01*
X686259Y314149D01*
X686152Y314283D01*
X686048Y314420D01*
X685947Y314559D01*
X685850Y314701D01*
X685756Y314845D01*
X685666Y314991D01*
X685579Y315140D01*
X685497Y315290D01*
X685417Y315443D01*
X685342Y315597D01*
X685271Y315753D01*
X685203Y315911D01*
X685139Y316071D01*
X685079Y316232D01*
X685023Y316394D01*
X684971Y316558D01*
X684924Y316723D01*
X684880Y316889D01*
X684840Y317056D01*
X684805Y317224D01*
X684773Y317393D01*
X684746Y317563D01*
X684723Y317733D01*
X684704Y317904D01*
X684689Y318075D01*
X684678Y318247D01*
X684672Y318418D01*
X684670Y318590D01*
X684710Y250730D02*
X684712Y250902D01*
X684718Y251073D01*
X684729Y251245D01*
X684744Y251416D01*
X684763Y251587D01*
X684786Y251757D01*
X684813Y251927D01*
X684845Y252096D01*
X684880Y252264D01*
X684920Y252431D01*
X684964Y252597D01*
X685011Y252762D01*
X685063Y252926D01*
X685119Y253088D01*
X685179Y253249D01*
X685243Y253409D01*
X685311Y253567D01*
X685382Y253723D01*
X685457Y253877D01*
X685537Y254030D01*
X685619Y254180D01*
X685706Y254329D01*
X685796Y254475D01*
X685890Y254619D01*
X685987Y254761D01*
X686088Y254900D01*
X686192Y255037D01*
X686299Y255171D01*
X686410Y255302D01*
X686523Y255431D01*
X686640Y255557D01*
X686760Y255680D01*
X686883Y255800D01*
X687009Y255917D01*
X687138Y256030D01*
X687269Y256141D01*
X687403Y256248D01*
X687540Y256352D01*
X687679Y256453D01*
X687821Y256550D01*
X687965Y256644D01*
X688111Y256734D01*
X688260Y256821D01*
X688410Y256903D01*
X688563Y256983D01*
X688717Y257058D01*
X688873Y257129D01*
X689031Y257197D01*
X689191Y257261D01*
X689352Y257321D01*
X689514Y257377D01*
X689678Y257429D01*
X689843Y257476D01*
X690009Y257520D01*
X690176Y257560D01*
X690344Y257595D01*
X690513Y257627D01*
X690683Y257654D01*
X690853Y257677D01*
X691024Y257696D01*
X691195Y257711D01*
X691367Y257722D01*
X691538Y257728D01*
X691710Y257730D01*
X691882Y257728D01*
X692053Y257722D01*
X692225Y257711D01*
X692396Y257696D01*
X692567Y257677D01*
X692737Y257654D01*
X692907Y257627D01*
X693076Y257595D01*
X693244Y257560D01*
X693411Y257520D01*
X693577Y257476D01*
X693742Y257429D01*
X693906Y257377D01*
X694068Y257321D01*
X694229Y257261D01*
X694389Y257197D01*
X694547Y257129D01*
X694703Y257058D01*
X694857Y256983D01*
X695010Y256903D01*
X695160Y256821D01*
X695309Y256734D01*
X695455Y256644D01*
X695599Y256550D01*
X695741Y256453D01*
X695880Y256352D01*
X696017Y256248D01*
X696151Y256141D01*
X696282Y256030D01*
X696411Y255917D01*
X696537Y255800D01*
X696660Y255680D01*
X696780Y255557D01*
X696897Y255431D01*
X697010Y255302D01*
X697121Y255171D01*
X697228Y255037D01*
X697332Y254900D01*
X697433Y254761D01*
X697530Y254619D01*
X697624Y254475D01*
X697714Y254329D01*
X697801Y254180D01*
X697883Y254030D01*
X697963Y253877D01*
X698038Y253723D01*
X698109Y253567D01*
X698177Y253409D01*
X698241Y253249D01*
X698301Y253088D01*
X698357Y252926D01*
X698409Y252762D01*
X698456Y252597D01*
X698500Y252431D01*
X698540Y252264D01*
X698575Y252096D01*
X698607Y251927D01*
X698634Y251757D01*
X698657Y251587D01*
X698676Y251416D01*
X698691Y251245D01*
X698702Y251073D01*
X698708Y250902D01*
X698710Y250730D01*
X698708Y250558D01*
X698702Y250387D01*
X698691Y250215D01*
X698676Y250044D01*
X698657Y249873D01*
X698634Y249703D01*
X698607Y249533D01*
X698575Y249364D01*
X698540Y249196D01*
X698500Y249029D01*
X698456Y248863D01*
X698409Y248698D01*
X698357Y248534D01*
X698301Y248372D01*
X698241Y248211D01*
X698177Y248051D01*
X698109Y247893D01*
X698038Y247737D01*
X697963Y247583D01*
X697883Y247430D01*
X697801Y247280D01*
X697714Y247131D01*
X697624Y246985D01*
X697530Y246841D01*
X697433Y246699D01*
X697332Y246560D01*
X697228Y246423D01*
X697121Y246289D01*
X697010Y246158D01*
X696897Y246029D01*
X696780Y245903D01*
X696660Y245780D01*
X696537Y245660D01*
X696411Y245543D01*
X696282Y245430D01*
X696151Y245319D01*
X696017Y245212D01*
X695880Y245108D01*
X695741Y245007D01*
X695599Y244910D01*
X695455Y244816D01*
X695309Y244726D01*
X695160Y244639D01*
X695010Y244557D01*
X694857Y244477D01*
X694703Y244402D01*
X694547Y244331D01*
X694389Y244263D01*
X694229Y244199D01*
X694068Y244139D01*
X693906Y244083D01*
X693742Y244031D01*
X693577Y243984D01*
X693411Y243940D01*
X693244Y243900D01*
X693076Y243865D01*
X692907Y243833D01*
X692737Y243806D01*
X692567Y243783D01*
X692396Y243764D01*
X692225Y243749D01*
X692053Y243738D01*
X691882Y243732D01*
X691710Y243730D01*
X691538Y243732D01*
X691367Y243738D01*
X691195Y243749D01*
X691024Y243764D01*
X690853Y243783D01*
X690683Y243806D01*
X690513Y243833D01*
X690344Y243865D01*
X690176Y243900D01*
X690009Y243940D01*
X689843Y243984D01*
X689678Y244031D01*
X689514Y244083D01*
X689352Y244139D01*
X689191Y244199D01*
X689031Y244263D01*
X688873Y244331D01*
X688717Y244402D01*
X688563Y244477D01*
X688410Y244557D01*
X688260Y244639D01*
X688111Y244726D01*
X687965Y244816D01*
X687821Y244910D01*
X687679Y245007D01*
X687540Y245108D01*
X687403Y245212D01*
X687269Y245319D01*
X687138Y245430D01*
X687009Y245543D01*
X686883Y245660D01*
X686760Y245780D01*
X686640Y245903D01*
X686523Y246029D01*
X686410Y246158D01*
X686299Y246289D01*
X686192Y246423D01*
X686088Y246560D01*
X685987Y246699D01*
X685890Y246841D01*
X685796Y246985D01*
X685706Y247131D01*
X685619Y247280D01*
X685537Y247430D01*
X685457Y247583D01*
X685382Y247737D01*
X685311Y247893D01*
X685243Y248051D01*
X685179Y248211D01*
X685119Y248372D01*
X685063Y248534D01*
X685011Y248698D01*
X684964Y248863D01*
X684920Y249029D01*
X684880Y249196D01*
X684845Y249364D01*
X684813Y249533D01*
X684786Y249703D01*
X684763Y249873D01*
X684744Y250044D01*
X684729Y250215D01*
X684718Y250387D01*
X684712Y250558D01*
X684710Y250730D01*
D13*
X854618Y192652D02*
X882558Y192652D01*
X882558Y179952D01*
X854618Y179952D01*
X854618Y192652D01*
X854618Y196636D02*
X882558Y196636D01*
X854618Y196636D02*
X854618Y209336D01*
X882558Y209336D01*
X882558Y196636D01*
X826864Y165048D02*
X826864Y137108D01*
X826864Y165048D02*
X839564Y165048D01*
X839564Y137108D01*
X826864Y137108D01*
X808430Y137200D02*
X808430Y165140D01*
X821130Y165140D01*
X821130Y137200D01*
X808430Y137200D01*
D12*
X807780Y185420D02*
X807782Y185592D01*
X807788Y185763D01*
X807799Y185935D01*
X807814Y186106D01*
X807833Y186277D01*
X807856Y186447D01*
X807883Y186617D01*
X807915Y186786D01*
X807950Y186954D01*
X807990Y187121D01*
X808034Y187287D01*
X808081Y187452D01*
X808133Y187616D01*
X808189Y187778D01*
X808249Y187939D01*
X808313Y188099D01*
X808381Y188257D01*
X808452Y188413D01*
X808527Y188567D01*
X808607Y188720D01*
X808689Y188870D01*
X808776Y189019D01*
X808866Y189165D01*
X808960Y189309D01*
X809057Y189451D01*
X809158Y189590D01*
X809262Y189727D01*
X809369Y189861D01*
X809480Y189992D01*
X809593Y190121D01*
X809710Y190247D01*
X809830Y190370D01*
X809953Y190490D01*
X810079Y190607D01*
X810208Y190720D01*
X810339Y190831D01*
X810473Y190938D01*
X810610Y191042D01*
X810749Y191143D01*
X810891Y191240D01*
X811035Y191334D01*
X811181Y191424D01*
X811330Y191511D01*
X811480Y191593D01*
X811633Y191673D01*
X811787Y191748D01*
X811943Y191819D01*
X812101Y191887D01*
X812261Y191951D01*
X812422Y192011D01*
X812584Y192067D01*
X812748Y192119D01*
X812913Y192166D01*
X813079Y192210D01*
X813246Y192250D01*
X813414Y192285D01*
X813583Y192317D01*
X813753Y192344D01*
X813923Y192367D01*
X814094Y192386D01*
X814265Y192401D01*
X814437Y192412D01*
X814608Y192418D01*
X814780Y192420D01*
X814952Y192418D01*
X815123Y192412D01*
X815295Y192401D01*
X815466Y192386D01*
X815637Y192367D01*
X815807Y192344D01*
X815977Y192317D01*
X816146Y192285D01*
X816314Y192250D01*
X816481Y192210D01*
X816647Y192166D01*
X816812Y192119D01*
X816976Y192067D01*
X817138Y192011D01*
X817299Y191951D01*
X817459Y191887D01*
X817617Y191819D01*
X817773Y191748D01*
X817927Y191673D01*
X818080Y191593D01*
X818230Y191511D01*
X818379Y191424D01*
X818525Y191334D01*
X818669Y191240D01*
X818811Y191143D01*
X818950Y191042D01*
X819087Y190938D01*
X819221Y190831D01*
X819352Y190720D01*
X819481Y190607D01*
X819607Y190490D01*
X819730Y190370D01*
X819850Y190247D01*
X819967Y190121D01*
X820080Y189992D01*
X820191Y189861D01*
X820298Y189727D01*
X820402Y189590D01*
X820503Y189451D01*
X820600Y189309D01*
X820694Y189165D01*
X820784Y189019D01*
X820871Y188870D01*
X820953Y188720D01*
X821033Y188567D01*
X821108Y188413D01*
X821179Y188257D01*
X821247Y188099D01*
X821311Y187939D01*
X821371Y187778D01*
X821427Y187616D01*
X821479Y187452D01*
X821526Y187287D01*
X821570Y187121D01*
X821610Y186954D01*
X821645Y186786D01*
X821677Y186617D01*
X821704Y186447D01*
X821727Y186277D01*
X821746Y186106D01*
X821761Y185935D01*
X821772Y185763D01*
X821778Y185592D01*
X821780Y185420D01*
X821778Y185248D01*
X821772Y185077D01*
X821761Y184905D01*
X821746Y184734D01*
X821727Y184563D01*
X821704Y184393D01*
X821677Y184223D01*
X821645Y184054D01*
X821610Y183886D01*
X821570Y183719D01*
X821526Y183553D01*
X821479Y183388D01*
X821427Y183224D01*
X821371Y183062D01*
X821311Y182901D01*
X821247Y182741D01*
X821179Y182583D01*
X821108Y182427D01*
X821033Y182273D01*
X820953Y182120D01*
X820871Y181970D01*
X820784Y181821D01*
X820694Y181675D01*
X820600Y181531D01*
X820503Y181389D01*
X820402Y181250D01*
X820298Y181113D01*
X820191Y180979D01*
X820080Y180848D01*
X819967Y180719D01*
X819850Y180593D01*
X819730Y180470D01*
X819607Y180350D01*
X819481Y180233D01*
X819352Y180120D01*
X819221Y180009D01*
X819087Y179902D01*
X818950Y179798D01*
X818811Y179697D01*
X818669Y179600D01*
X818525Y179506D01*
X818379Y179416D01*
X818230Y179329D01*
X818080Y179247D01*
X817927Y179167D01*
X817773Y179092D01*
X817617Y179021D01*
X817459Y178953D01*
X817299Y178889D01*
X817138Y178829D01*
X816976Y178773D01*
X816812Y178721D01*
X816647Y178674D01*
X816481Y178630D01*
X816314Y178590D01*
X816146Y178555D01*
X815977Y178523D01*
X815807Y178496D01*
X815637Y178473D01*
X815466Y178454D01*
X815295Y178439D01*
X815123Y178428D01*
X814952Y178422D01*
X814780Y178420D01*
X814608Y178422D01*
X814437Y178428D01*
X814265Y178439D01*
X814094Y178454D01*
X813923Y178473D01*
X813753Y178496D01*
X813583Y178523D01*
X813414Y178555D01*
X813246Y178590D01*
X813079Y178630D01*
X812913Y178674D01*
X812748Y178721D01*
X812584Y178773D01*
X812422Y178829D01*
X812261Y178889D01*
X812101Y178953D01*
X811943Y179021D01*
X811787Y179092D01*
X811633Y179167D01*
X811480Y179247D01*
X811330Y179329D01*
X811181Y179416D01*
X811035Y179506D01*
X810891Y179600D01*
X810749Y179697D01*
X810610Y179798D01*
X810473Y179902D01*
X810339Y180009D01*
X810208Y180120D01*
X810079Y180233D01*
X809953Y180350D01*
X809830Y180470D01*
X809710Y180593D01*
X809593Y180719D01*
X809480Y180848D01*
X809369Y180979D01*
X809262Y181113D01*
X809158Y181250D01*
X809057Y181389D01*
X808960Y181531D01*
X808866Y181675D01*
X808776Y181821D01*
X808689Y181970D01*
X808607Y182120D01*
X808527Y182273D01*
X808452Y182427D01*
X808381Y182583D01*
X808313Y182741D01*
X808249Y182901D01*
X808189Y183062D01*
X808133Y183224D01*
X808081Y183388D01*
X808034Y183553D01*
X807990Y183719D01*
X807950Y183886D01*
X807915Y184054D01*
X807883Y184223D01*
X807856Y184393D01*
X807833Y184563D01*
X807814Y184734D01*
X807799Y184905D01*
X807788Y185077D01*
X807782Y185248D01*
X807780Y185420D01*
D13*
X697980Y270550D02*
X697980Y298490D01*
X697980Y270550D02*
X685280Y270550D01*
X685280Y298490D01*
X697980Y298490D01*
X696750Y231100D02*
X696750Y203160D01*
X684050Y203160D01*
X684050Y231100D01*
X696750Y231100D01*
D14*
X652220Y293370D03*
X652220Y226060D03*
D13*
X785490Y261580D02*
X785490Y289520D01*
X798190Y289520D01*
X798190Y261580D01*
X785490Y261580D01*
X785490Y237530D02*
X785490Y209590D01*
X785490Y237530D02*
X798190Y237530D01*
X798190Y209590D01*
X785490Y209590D01*
D15*
X979024Y263840D02*
X979024Y268840D01*
X974024Y268840D01*
X979024Y223840D02*
X979024Y218840D01*
X974024Y218840D01*
X934024Y268840D02*
X929024Y268840D01*
X929024Y263840D01*
X929024Y218840D02*
X934024Y218840D01*
X929024Y218840D02*
X929024Y223840D01*
D16*
X982024Y272840D03*
D17*
X1009687Y146558D02*
X1009404Y146153D01*
X1009111Y145754D01*
X1008808Y145363D01*
X1008496Y144979D01*
X1008175Y144603D01*
X1007845Y144235D01*
X1007506Y143875D01*
X1007158Y143524D01*
X1006802Y143181D01*
X1006438Y142846D01*
X1006065Y142521D01*
X1005685Y142205D01*
X1005297Y141898D01*
X1004902Y141601D01*
X1004500Y141313D01*
X1004090Y141036D01*
X1003675Y140768D01*
X1003252Y140511D01*
X1002824Y140264D01*
X1002390Y140027D01*
X1001950Y139801D01*
X1001505Y139586D01*
X1001055Y139381D01*
X1000599Y139188D01*
X1000140Y139006D01*
X999676Y138835D01*
X999208Y138676D01*
X998736Y138527D01*
X998261Y138391D01*
X997782Y138266D01*
X997301Y138153D01*
X996817Y138051D01*
X996331Y137961D01*
X995842Y137883D01*
X995352Y137817D01*
X994861Y137763D01*
X994368Y137721D01*
X993874Y137691D01*
X993380Y137673D01*
X992886Y137667D01*
D18*
X1015746Y136398D02*
X1015746Y146558D01*
D17*
X924306Y137668D02*
X923812Y137674D01*
X923318Y137692D01*
X922824Y137722D01*
X922332Y137764D01*
X921840Y137818D01*
X921350Y137884D01*
X920862Y137962D01*
X920375Y138052D01*
X919892Y138153D01*
X919410Y138267D01*
X918932Y138392D01*
X918457Y138528D01*
X917985Y138676D01*
X917517Y138836D01*
X917053Y139007D01*
X916593Y139189D01*
X916138Y139382D01*
X915687Y139586D01*
X915242Y139801D01*
X914802Y140027D01*
X914368Y140264D01*
X913940Y140511D01*
X913518Y140768D01*
X913102Y141036D01*
X912693Y141314D01*
X912290Y141601D01*
X911895Y141898D01*
X911507Y142205D01*
X911127Y142521D01*
X910755Y142847D01*
X910390Y143181D01*
X910034Y143524D01*
X909686Y143875D01*
X909347Y144235D01*
X909017Y144603D01*
X908696Y144979D01*
X908384Y145363D01*
X908081Y145754D01*
X907789Y146153D01*
X907505Y146558D01*
D18*
X901446Y146558D02*
X901446Y136398D01*
D17*
X924306Y170688D02*
X992886Y170688D01*
X992886Y178308D02*
X924306Y178308D01*
X924306Y145288D02*
X992886Y145288D01*
D18*
X1013206Y182118D02*
X903986Y182118D01*
X903886Y182116D01*
X903787Y182110D01*
X903687Y182100D01*
X903589Y182087D01*
X903490Y182069D01*
X903393Y182048D01*
X903297Y182023D01*
X903201Y181994D01*
X903107Y181961D01*
X903014Y181925D01*
X902923Y181885D01*
X902833Y181841D01*
X902745Y181794D01*
X902659Y181744D01*
X902575Y181690D01*
X902493Y181633D01*
X902414Y181573D01*
X902336Y181509D01*
X902262Y181443D01*
X902190Y181374D01*
X902121Y181302D01*
X902055Y181228D01*
X901991Y181150D01*
X901931Y181071D01*
X901874Y180989D01*
X901820Y180905D01*
X901770Y180819D01*
X901723Y180731D01*
X901679Y180641D01*
X901639Y180550D01*
X901603Y180457D01*
X901570Y180363D01*
X901541Y180267D01*
X901516Y180171D01*
X901495Y180074D01*
X901477Y179975D01*
X901464Y179877D01*
X901454Y179777D01*
X901448Y179678D01*
X901446Y179578D01*
X901446Y169418D01*
D17*
X918770Y169418D02*
X919043Y169546D01*
X919319Y169668D01*
X919598Y169783D01*
X919879Y169891D01*
X920163Y169993D01*
X920449Y170088D01*
X920737Y170176D01*
X921027Y170258D01*
X921320Y170332D01*
X921613Y170399D01*
X921909Y170460D01*
X922205Y170513D01*
X922503Y170559D01*
X922802Y170599D01*
X923102Y170631D01*
X923403Y170656D01*
X923703Y170674D01*
X924005Y170684D01*
X924306Y170688D01*
X918770Y146558D02*
X919043Y146430D01*
X919319Y146308D01*
X919598Y146193D01*
X919879Y146085D01*
X920163Y145983D01*
X920449Y145888D01*
X920737Y145800D01*
X921027Y145718D01*
X921320Y145644D01*
X921613Y145577D01*
X921909Y145516D01*
X922205Y145463D01*
X922503Y145417D01*
X922802Y145377D01*
X923102Y145345D01*
X923403Y145320D01*
X923703Y145302D01*
X924005Y145292D01*
X924306Y145288D01*
X907506Y169417D02*
X907789Y169822D01*
X908082Y170221D01*
X908384Y170612D01*
X908696Y170996D01*
X909017Y171372D01*
X909347Y171740D01*
X909686Y172100D01*
X910034Y172451D01*
X910390Y172794D01*
X910755Y173129D01*
X911127Y173454D01*
X911507Y173770D01*
X911895Y174077D01*
X912290Y174374D01*
X912693Y174662D01*
X913102Y174939D01*
X913517Y175207D01*
X913940Y175464D01*
X914368Y175711D01*
X914802Y175948D01*
X915242Y176174D01*
X915687Y176389D01*
X916137Y176593D01*
X916593Y176787D01*
X917052Y176969D01*
X917516Y177140D01*
X917984Y177299D01*
X918456Y177447D01*
X918931Y177584D01*
X919410Y177709D01*
X919891Y177822D01*
X920375Y177924D01*
X920861Y178014D01*
X921349Y178092D01*
X921839Y178158D01*
X922331Y178212D01*
X922824Y178254D01*
X923317Y178284D01*
X923811Y178302D01*
X924306Y178308D01*
X992886Y178308D02*
X993380Y178302D01*
X993874Y178284D01*
X994368Y178254D01*
X994860Y178212D01*
X995352Y178158D01*
X995842Y178092D01*
X996330Y178014D01*
X996817Y177924D01*
X997300Y177823D01*
X997782Y177709D01*
X998260Y177584D01*
X998735Y177448D01*
X999207Y177300D01*
X999675Y177140D01*
X1000139Y176969D01*
X1000599Y176787D01*
X1001054Y176594D01*
X1001505Y176390D01*
X1001950Y176175D01*
X1002390Y175949D01*
X1002824Y175712D01*
X1003252Y175465D01*
X1003674Y175208D01*
X1004090Y174940D01*
X1004499Y174662D01*
X1004902Y174375D01*
X1005297Y174078D01*
X1005685Y173771D01*
X1006065Y173455D01*
X1006437Y173129D01*
X1006802Y172795D01*
X1007158Y172452D01*
X1007506Y172101D01*
X1007845Y171741D01*
X1008175Y171373D01*
X1008496Y170997D01*
X1008808Y170613D01*
X1009111Y170222D01*
X1009403Y169823D01*
X1009687Y169418D01*
X998422Y169418D02*
X998149Y169546D01*
X997873Y169668D01*
X997594Y169783D01*
X997313Y169891D01*
X997029Y169993D01*
X996743Y170088D01*
X996455Y170176D01*
X996165Y170258D01*
X995872Y170332D01*
X995579Y170399D01*
X995283Y170460D01*
X994987Y170513D01*
X994689Y170559D01*
X994390Y170599D01*
X994090Y170631D01*
X993789Y170656D01*
X993489Y170674D01*
X993187Y170684D01*
X992886Y170688D01*
X998422Y146558D02*
X998149Y146430D01*
X997873Y146308D01*
X997594Y146193D01*
X997313Y146085D01*
X997029Y145983D01*
X996743Y145888D01*
X996455Y145800D01*
X996165Y145718D01*
X995872Y145644D01*
X995579Y145577D01*
X995283Y145516D01*
X994987Y145463D01*
X994689Y145417D01*
X994390Y145377D01*
X994090Y145345D01*
X993789Y145320D01*
X993489Y145302D01*
X993187Y145292D01*
X992886Y145288D01*
D18*
X1015746Y169418D02*
X1015746Y179578D01*
X1015744Y179678D01*
X1015738Y179777D01*
X1015728Y179877D01*
X1015715Y179975D01*
X1015697Y180074D01*
X1015676Y180171D01*
X1015651Y180267D01*
X1015622Y180363D01*
X1015589Y180457D01*
X1015553Y180550D01*
X1015513Y180641D01*
X1015469Y180731D01*
X1015422Y180819D01*
X1015372Y180905D01*
X1015318Y180989D01*
X1015261Y181071D01*
X1015201Y181150D01*
X1015137Y181228D01*
X1015071Y181302D01*
X1015002Y181374D01*
X1014930Y181443D01*
X1014856Y181509D01*
X1014778Y181573D01*
X1014699Y181633D01*
X1014617Y181690D01*
X1014533Y181744D01*
X1014447Y181794D01*
X1014359Y181841D01*
X1014269Y181885D01*
X1014178Y181925D01*
X1014085Y181961D01*
X1013991Y181994D01*
X1013895Y182023D01*
X1013799Y182048D01*
X1013702Y182069D01*
X1013603Y182087D01*
X1013505Y182100D01*
X1013405Y182110D01*
X1013306Y182116D01*
X1013206Y182118D01*
D17*
X992886Y137668D02*
X924306Y137668D01*
D18*
X903986Y133858D02*
X1013206Y133858D01*
X903986Y133858D02*
X903886Y133860D01*
X903787Y133866D01*
X903687Y133876D01*
X903589Y133889D01*
X903490Y133907D01*
X903393Y133928D01*
X903297Y133953D01*
X903201Y133982D01*
X903107Y134015D01*
X903014Y134051D01*
X902923Y134091D01*
X902833Y134135D01*
X902745Y134182D01*
X902659Y134232D01*
X902575Y134286D01*
X902493Y134343D01*
X902414Y134403D01*
X902336Y134467D01*
X902262Y134533D01*
X902190Y134602D01*
X902121Y134674D01*
X902055Y134748D01*
X901991Y134826D01*
X901931Y134905D01*
X901874Y134987D01*
X901820Y135071D01*
X901770Y135157D01*
X901723Y135245D01*
X901679Y135335D01*
X901639Y135426D01*
X901603Y135519D01*
X901570Y135613D01*
X901541Y135709D01*
X901516Y135805D01*
X901495Y135902D01*
X901477Y136001D01*
X901464Y136099D01*
X901454Y136199D01*
X901448Y136298D01*
X901446Y136398D01*
X1013206Y133858D02*
X1013306Y133860D01*
X1013405Y133866D01*
X1013505Y133876D01*
X1013603Y133889D01*
X1013702Y133907D01*
X1013799Y133928D01*
X1013895Y133953D01*
X1013991Y133982D01*
X1014085Y134015D01*
X1014178Y134051D01*
X1014269Y134091D01*
X1014359Y134135D01*
X1014447Y134182D01*
X1014533Y134232D01*
X1014617Y134286D01*
X1014699Y134343D01*
X1014778Y134403D01*
X1014856Y134467D01*
X1014930Y134533D01*
X1015002Y134602D01*
X1015071Y134674D01*
X1015137Y134748D01*
X1015201Y134826D01*
X1015261Y134905D01*
X1015318Y134987D01*
X1015372Y135071D01*
X1015422Y135157D01*
X1015469Y135245D01*
X1015513Y135335D01*
X1015553Y135426D01*
X1015589Y135519D01*
X1015622Y135613D01*
X1015651Y135709D01*
X1015676Y135805D01*
X1015697Y135902D01*
X1015715Y136001D01*
X1015728Y136099D01*
X1015738Y136199D01*
X1015744Y136298D01*
X1015746Y136398D01*
X961136Y151638D02*
X961136Y164338D01*
X956056Y164338D01*
X956056Y151638D01*
X961136Y151638D01*
X964946Y151638D02*
X964946Y157988D01*
X964946Y164338D01*
D17*
X964946Y157988D02*
X968756Y157988D01*
D18*
X952246Y157988D02*
X952246Y151638D01*
X952246Y157988D02*
X952246Y164338D01*
D17*
X952246Y157988D02*
X948436Y157988D01*
D13*
X956564Y116586D02*
X928624Y116586D01*
X928624Y129286D01*
X956564Y129286D01*
X956564Y116586D01*
X965708Y129286D02*
X993648Y129286D01*
X993648Y116586D01*
X965708Y116586D01*
X965708Y129286D01*
X972058Y303530D02*
X944118Y303530D01*
X972058Y303530D02*
X972058Y290830D01*
X944118Y290830D01*
X944118Y303530D01*
D19*
X1003586Y445000D02*
X1003588Y445075D01*
X1003594Y445149D01*
X1003604Y445223D01*
X1003617Y445296D01*
X1003635Y445369D01*
X1003656Y445440D01*
X1003681Y445511D01*
X1003710Y445580D01*
X1003743Y445647D01*
X1003779Y445712D01*
X1003818Y445776D01*
X1003860Y445837D01*
X1003906Y445896D01*
X1003955Y445953D01*
X1004007Y446006D01*
X1004061Y446057D01*
X1004118Y446106D01*
X1004178Y446150D01*
X1004240Y446192D01*
X1004304Y446231D01*
X1004370Y446266D01*
X1004437Y446297D01*
X1004507Y446325D01*
X1004577Y446349D01*
X1004649Y446370D01*
X1004722Y446386D01*
X1004795Y446399D01*
X1004870Y446408D01*
X1004944Y446413D01*
X1005019Y446414D01*
X1005093Y446411D01*
X1005168Y446404D01*
X1005241Y446393D01*
X1005315Y446379D01*
X1005387Y446360D01*
X1005458Y446338D01*
X1005528Y446312D01*
X1005597Y446282D01*
X1005663Y446249D01*
X1005728Y446212D01*
X1005791Y446172D01*
X1005852Y446128D01*
X1005910Y446082D01*
X1005966Y446032D01*
X1006019Y445980D01*
X1006070Y445925D01*
X1006117Y445867D01*
X1006161Y445807D01*
X1006202Y445744D01*
X1006240Y445680D01*
X1006274Y445614D01*
X1006305Y445545D01*
X1006332Y445476D01*
X1006355Y445405D01*
X1006374Y445333D01*
X1006390Y445260D01*
X1006402Y445186D01*
X1006410Y445112D01*
X1006414Y445037D01*
X1006414Y444963D01*
X1006410Y444888D01*
X1006402Y444814D01*
X1006390Y444740D01*
X1006374Y444667D01*
X1006355Y444595D01*
X1006332Y444524D01*
X1006305Y444455D01*
X1006274Y444386D01*
X1006240Y444320D01*
X1006202Y444256D01*
X1006161Y444193D01*
X1006117Y444133D01*
X1006070Y444075D01*
X1006019Y444020D01*
X1005966Y443968D01*
X1005910Y443918D01*
X1005852Y443872D01*
X1005791Y443828D01*
X1005728Y443788D01*
X1005663Y443751D01*
X1005597Y443718D01*
X1005528Y443688D01*
X1005458Y443662D01*
X1005387Y443640D01*
X1005315Y443621D01*
X1005241Y443607D01*
X1005168Y443596D01*
X1005093Y443589D01*
X1005019Y443586D01*
X1004944Y443587D01*
X1004870Y443592D01*
X1004795Y443601D01*
X1004722Y443614D01*
X1004649Y443630D01*
X1004577Y443651D01*
X1004507Y443675D01*
X1004437Y443703D01*
X1004370Y443734D01*
X1004304Y443769D01*
X1004240Y443808D01*
X1004178Y443850D01*
X1004118Y443894D01*
X1004061Y443943D01*
X1004007Y443994D01*
X1003955Y444047D01*
X1003906Y444104D01*
X1003860Y444163D01*
X1003818Y444224D01*
X1003779Y444288D01*
X1003743Y444353D01*
X1003710Y444420D01*
X1003681Y444489D01*
X1003656Y444560D01*
X1003635Y444631D01*
X1003617Y444704D01*
X1003604Y444777D01*
X1003594Y444851D01*
X1003588Y444925D01*
X1003586Y445000D01*
D20*
X995000Y494000D02*
X965000Y494000D01*
X1010000Y468000D02*
X1010000Y451500D01*
X957500Y451500D02*
X950000Y451500D01*
X950000Y468000D01*
X1002500Y451500D02*
X1010000Y451500D01*
D19*
X953586Y55000D02*
X953588Y55075D01*
X953594Y55149D01*
X953604Y55223D01*
X953617Y55296D01*
X953635Y55369D01*
X953656Y55440D01*
X953681Y55511D01*
X953710Y55580D01*
X953743Y55647D01*
X953779Y55712D01*
X953818Y55776D01*
X953860Y55837D01*
X953906Y55896D01*
X953955Y55953D01*
X954007Y56006D01*
X954061Y56057D01*
X954118Y56106D01*
X954178Y56150D01*
X954240Y56192D01*
X954304Y56231D01*
X954370Y56266D01*
X954437Y56297D01*
X954507Y56325D01*
X954577Y56349D01*
X954649Y56370D01*
X954722Y56386D01*
X954795Y56399D01*
X954870Y56408D01*
X954944Y56413D01*
X955019Y56414D01*
X955093Y56411D01*
X955168Y56404D01*
X955241Y56393D01*
X955315Y56379D01*
X955387Y56360D01*
X955458Y56338D01*
X955528Y56312D01*
X955597Y56282D01*
X955663Y56249D01*
X955728Y56212D01*
X955791Y56172D01*
X955852Y56128D01*
X955910Y56082D01*
X955966Y56032D01*
X956019Y55980D01*
X956070Y55925D01*
X956117Y55867D01*
X956161Y55807D01*
X956202Y55744D01*
X956240Y55680D01*
X956274Y55614D01*
X956305Y55545D01*
X956332Y55476D01*
X956355Y55405D01*
X956374Y55333D01*
X956390Y55260D01*
X956402Y55186D01*
X956410Y55112D01*
X956414Y55037D01*
X956414Y54963D01*
X956410Y54888D01*
X956402Y54814D01*
X956390Y54740D01*
X956374Y54667D01*
X956355Y54595D01*
X956332Y54524D01*
X956305Y54455D01*
X956274Y54386D01*
X956240Y54320D01*
X956202Y54256D01*
X956161Y54193D01*
X956117Y54133D01*
X956070Y54075D01*
X956019Y54020D01*
X955966Y53968D01*
X955910Y53918D01*
X955852Y53872D01*
X955791Y53828D01*
X955728Y53788D01*
X955663Y53751D01*
X955597Y53718D01*
X955528Y53688D01*
X955458Y53662D01*
X955387Y53640D01*
X955315Y53621D01*
X955241Y53607D01*
X955168Y53596D01*
X955093Y53589D01*
X955019Y53586D01*
X954944Y53587D01*
X954870Y53592D01*
X954795Y53601D01*
X954722Y53614D01*
X954649Y53630D01*
X954577Y53651D01*
X954507Y53675D01*
X954437Y53703D01*
X954370Y53734D01*
X954304Y53769D01*
X954240Y53808D01*
X954178Y53850D01*
X954118Y53894D01*
X954061Y53943D01*
X954007Y53994D01*
X953955Y54047D01*
X953906Y54104D01*
X953860Y54163D01*
X953818Y54224D01*
X953779Y54288D01*
X953743Y54353D01*
X953710Y54420D01*
X953681Y54489D01*
X953656Y54560D01*
X953635Y54631D01*
X953617Y54704D01*
X953604Y54777D01*
X953594Y54851D01*
X953588Y54925D01*
X953586Y55000D01*
D20*
X965000Y6000D02*
X995000Y6000D01*
X950000Y32000D02*
X950000Y48500D01*
X1002500Y48500D02*
X1010000Y48500D01*
X1010000Y32000D01*
X957500Y48500D02*
X950000Y48500D01*
D21*
X853634Y452652D03*
X846134Y452652D03*
D14*
X849884Y452652D03*
D13*
X901446Y453390D02*
X901446Y425450D01*
X888746Y425450D01*
X888746Y453390D01*
X901446Y453390D01*
X885190Y453390D02*
X885190Y425450D01*
X872490Y425450D01*
X872490Y453390D01*
X885190Y453390D01*
X825754Y440182D02*
X825754Y468122D01*
X838454Y468122D01*
X838454Y440182D01*
X825754Y440182D01*
X901192Y303530D02*
X929132Y303530D01*
X929132Y290830D01*
X901192Y290830D01*
X901192Y303530D01*
X1004062Y283210D02*
X1032002Y283210D01*
X1004062Y283210D02*
X1004062Y295910D01*
X1032002Y295910D01*
X1032002Y283210D01*
X1032002Y215646D02*
X1004062Y215646D01*
X1004062Y228346D01*
X1032002Y228346D01*
X1032002Y215646D01*
X1032002Y232918D02*
X1004062Y232918D01*
X1004062Y245618D01*
X1032002Y245618D01*
X1032002Y232918D01*
X1032002Y249936D02*
X1004062Y249936D01*
X1004062Y262636D01*
X1032002Y262636D01*
X1032002Y249936D01*
X1032002Y279654D02*
X1004062Y279654D01*
X1032002Y279654D02*
X1032002Y266954D01*
X1004062Y266954D01*
X1004062Y279654D01*
X1081900Y351600D02*
X1107300Y351600D01*
X1107300Y148400D01*
X1081900Y148400D01*
X1081900Y351600D01*
X972058Y306070D02*
X944118Y306070D01*
X944118Y318770D01*
X972058Y318770D01*
X972058Y306070D01*
M02*
