G04 EAGLE Gerber RS-274X export*
G75*
%MOMM*%
%FSLAX34Y34*%
%LPD*%
%INSolderpaste Top*%
%IPPOS*%
%AMOC8*
5,1,8,0,0,1.08239X$1,22.5*%
G01*
%ADD10R,1.300000X1.500000*%
%ADD11C,0.222250*%
%ADD12R,0.430000X0.280000*%
%ADD13C,0.125000*%
%ADD14C,0.345000*%
%ADD15R,5.334000X1.930400*%
%ADD16R,0.600000X1.350000*%
%ADD17R,1.200000X2.000000*%
%ADD18R,0.800000X0.800000*%


D10*
X863700Y260350D03*
X882700Y260350D03*
X863700Y232410D03*
X882700Y232410D03*
D11*
X749176Y279836D02*
X749176Y286504D01*
X755844Y286504D01*
X755844Y279836D01*
X749176Y279836D01*
X749176Y281948D02*
X755844Y281948D01*
X755844Y284060D02*
X749176Y284060D01*
X749176Y286172D02*
X755844Y286172D01*
X749176Y271264D02*
X749176Y264596D01*
X749176Y271264D02*
X755844Y271264D01*
X755844Y264596D01*
X749176Y264596D01*
X749176Y266708D02*
X755844Y266708D01*
X755844Y268820D02*
X749176Y268820D01*
X749176Y270932D02*
X755844Y270932D01*
X749176Y234514D02*
X749176Y227846D01*
X749176Y234514D02*
X755844Y234514D01*
X755844Y227846D01*
X749176Y227846D01*
X749176Y229958D02*
X755844Y229958D01*
X755844Y232070D02*
X749176Y232070D01*
X749176Y234182D02*
X755844Y234182D01*
X749176Y219274D02*
X749176Y212606D01*
X749176Y219274D02*
X755844Y219274D01*
X755844Y212606D01*
X749176Y212606D01*
X749176Y214718D02*
X755844Y214718D01*
X755844Y216830D02*
X749176Y216830D01*
X749176Y218942D02*
X755844Y218942D01*
X769456Y279836D02*
X769456Y286504D01*
X776124Y286504D01*
X776124Y279836D01*
X769456Y279836D01*
X769456Y281948D02*
X776124Y281948D01*
X776124Y284060D02*
X769456Y284060D01*
X769456Y286172D02*
X776124Y286172D01*
X769456Y271264D02*
X769456Y264596D01*
X769456Y271264D02*
X776124Y271264D01*
X776124Y264596D01*
X769456Y264596D01*
X769456Y266708D02*
X776124Y266708D01*
X776124Y268820D02*
X769456Y268820D01*
X769456Y270932D02*
X776124Y270932D01*
X769456Y234514D02*
X769456Y227846D01*
X769456Y234514D02*
X776124Y234514D01*
X776124Y227846D01*
X769456Y227846D01*
X769456Y229958D02*
X776124Y229958D01*
X776124Y232070D02*
X769456Y232070D01*
X769456Y234182D02*
X776124Y234182D01*
X769456Y219274D02*
X769456Y212606D01*
X769456Y219274D02*
X776124Y219274D01*
X776124Y212606D01*
X769456Y212606D01*
X769456Y214718D02*
X776124Y214718D01*
X776124Y216830D02*
X769456Y216830D01*
X769456Y218942D02*
X776124Y218942D01*
X728896Y279836D02*
X728896Y286504D01*
X735564Y286504D01*
X735564Y279836D01*
X728896Y279836D01*
X728896Y281948D02*
X735564Y281948D01*
X735564Y284060D02*
X728896Y284060D01*
X728896Y286172D02*
X735564Y286172D01*
X728896Y271264D02*
X728896Y264596D01*
X728896Y271264D02*
X735564Y271264D01*
X735564Y264596D01*
X728896Y264596D01*
X728896Y266708D02*
X735564Y266708D01*
X735564Y268820D02*
X728896Y268820D01*
X728896Y270932D02*
X735564Y270932D01*
X728896Y234514D02*
X728896Y227846D01*
X728896Y234514D02*
X735564Y234514D01*
X735564Y227846D01*
X728896Y227846D01*
X728896Y229958D02*
X735564Y229958D01*
X735564Y232070D02*
X728896Y232070D01*
X728896Y234182D02*
X735564Y234182D01*
X728896Y219274D02*
X728896Y212606D01*
X728896Y219274D02*
X735564Y219274D01*
X735564Y212606D01*
X728896Y212606D01*
X728896Y214718D02*
X735564Y214718D01*
X735564Y216830D02*
X728896Y216830D01*
X728896Y218942D02*
X735564Y218942D01*
X708616Y279836D02*
X708616Y286504D01*
X715284Y286504D01*
X715284Y279836D01*
X708616Y279836D01*
X708616Y281948D02*
X715284Y281948D01*
X715284Y284060D02*
X708616Y284060D01*
X708616Y286172D02*
X715284Y286172D01*
X708616Y271264D02*
X708616Y264596D01*
X708616Y271264D02*
X715284Y271264D01*
X715284Y264596D01*
X708616Y264596D01*
X708616Y266708D02*
X715284Y266708D01*
X715284Y268820D02*
X708616Y268820D01*
X708616Y270932D02*
X715284Y270932D01*
X708616Y234514D02*
X708616Y227846D01*
X708616Y234514D02*
X715284Y234514D01*
X715284Y227846D01*
X708616Y227846D01*
X708616Y229958D02*
X715284Y229958D01*
X715284Y232070D02*
X708616Y232070D01*
X708616Y234182D02*
X715284Y234182D01*
X708616Y219274D02*
X708616Y212606D01*
X708616Y219274D02*
X715284Y219274D01*
X715284Y212606D01*
X708616Y212606D01*
X708616Y214718D02*
X715284Y214718D01*
X715284Y216830D02*
X708616Y216830D01*
X708616Y218942D02*
X715284Y218942D01*
X857634Y182968D02*
X864302Y182968D01*
X857634Y182968D02*
X857634Y189636D01*
X864302Y189636D01*
X864302Y182968D01*
X864302Y185080D02*
X857634Y185080D01*
X857634Y187192D02*
X864302Y187192D01*
X864302Y189304D02*
X857634Y189304D01*
X872874Y182968D02*
X879542Y182968D01*
X872874Y182968D02*
X872874Y189636D01*
X879542Y189636D01*
X879542Y182968D01*
X879542Y185080D02*
X872874Y185080D01*
X872874Y187192D02*
X879542Y187192D01*
X879542Y189304D02*
X872874Y189304D01*
X872874Y206320D02*
X879542Y206320D01*
X879542Y199652D01*
X872874Y199652D01*
X872874Y206320D01*
X872874Y201764D02*
X879542Y201764D01*
X879542Y203876D02*
X872874Y203876D01*
X872874Y205988D02*
X879542Y205988D01*
X864302Y206320D02*
X857634Y206320D01*
X864302Y206320D02*
X864302Y199652D01*
X857634Y199652D01*
X857634Y206320D01*
X857634Y201764D02*
X864302Y201764D01*
X864302Y203876D02*
X857634Y203876D01*
X857634Y205988D02*
X864302Y205988D01*
X836548Y146792D02*
X836548Y140124D01*
X829880Y140124D01*
X829880Y146792D01*
X836548Y146792D01*
X836548Y142236D02*
X829880Y142236D01*
X829880Y144348D02*
X836548Y144348D01*
X836548Y146460D02*
X829880Y146460D01*
X836548Y155364D02*
X836548Y162032D01*
X836548Y155364D02*
X829880Y155364D01*
X829880Y162032D01*
X836548Y162032D01*
X836548Y157476D02*
X829880Y157476D01*
X829880Y159588D02*
X836548Y159588D01*
X836548Y161700D02*
X829880Y161700D01*
X818114Y146884D02*
X818114Y140216D01*
X811446Y140216D01*
X811446Y146884D01*
X818114Y146884D01*
X818114Y142328D02*
X811446Y142328D01*
X811446Y144440D02*
X818114Y144440D01*
X818114Y146552D02*
X811446Y146552D01*
X818114Y155456D02*
X818114Y162124D01*
X818114Y155456D02*
X811446Y155456D01*
X811446Y162124D01*
X818114Y162124D01*
X818114Y157568D02*
X811446Y157568D01*
X811446Y159680D02*
X818114Y159680D01*
X818114Y161792D02*
X811446Y161792D01*
X688296Y288806D02*
X688296Y295474D01*
X694964Y295474D01*
X694964Y288806D01*
X688296Y288806D01*
X688296Y290918D02*
X694964Y290918D01*
X694964Y293030D02*
X688296Y293030D01*
X688296Y295142D02*
X694964Y295142D01*
X688296Y280234D02*
X688296Y273566D01*
X688296Y280234D02*
X694964Y280234D01*
X694964Y273566D01*
X688296Y273566D01*
X688296Y275678D02*
X694964Y275678D01*
X694964Y277790D02*
X688296Y277790D01*
X688296Y279902D02*
X694964Y279902D01*
X687066Y228084D02*
X687066Y221416D01*
X687066Y228084D02*
X693734Y228084D01*
X693734Y221416D01*
X687066Y221416D01*
X687066Y223528D02*
X693734Y223528D01*
X693734Y225640D02*
X687066Y225640D01*
X687066Y227752D02*
X693734Y227752D01*
X687066Y212844D02*
X687066Y206176D01*
X687066Y212844D02*
X693734Y212844D01*
X693734Y206176D01*
X687066Y206176D01*
X687066Y208288D02*
X693734Y208288D01*
X693734Y210400D02*
X687066Y210400D01*
X687066Y212512D02*
X693734Y212512D01*
D12*
X652220Y290820D03*
X652220Y295920D03*
X652220Y228610D03*
X652220Y223510D03*
D11*
X795174Y264596D02*
X795174Y271264D01*
X795174Y264596D02*
X788506Y264596D01*
X788506Y271264D01*
X795174Y271264D01*
X795174Y266708D02*
X788506Y266708D01*
X788506Y268820D02*
X795174Y268820D01*
X795174Y270932D02*
X788506Y270932D01*
X795174Y279836D02*
X795174Y286504D01*
X795174Y279836D02*
X788506Y279836D01*
X788506Y286504D01*
X795174Y286504D01*
X795174Y281948D02*
X788506Y281948D01*
X788506Y284060D02*
X795174Y284060D01*
X795174Y286172D02*
X788506Y286172D01*
X795174Y219274D02*
X795174Y212606D01*
X788506Y212606D01*
X788506Y219274D01*
X795174Y219274D01*
X795174Y214718D02*
X788506Y214718D01*
X788506Y216830D02*
X795174Y216830D01*
X795174Y218942D02*
X788506Y218942D01*
X795174Y227846D02*
X795174Y234514D01*
X795174Y227846D02*
X788506Y227846D01*
X788506Y234514D01*
X795174Y234514D01*
X795174Y229958D02*
X788506Y229958D01*
X788506Y232070D02*
X795174Y232070D01*
X795174Y234182D02*
X788506Y234182D01*
D13*
X970899Y270715D02*
X972149Y270715D01*
X972149Y266965D01*
X970899Y266965D01*
X970899Y270715D01*
X970899Y268152D02*
X972149Y268152D01*
X972149Y269339D02*
X970899Y269339D01*
X970899Y270526D02*
X972149Y270526D01*
X967149Y270715D02*
X965899Y270715D01*
X967149Y270715D02*
X967149Y266965D01*
X965899Y266965D01*
X965899Y270715D01*
X965899Y268152D02*
X967149Y268152D01*
X967149Y269339D02*
X965899Y269339D01*
X965899Y270526D02*
X967149Y270526D01*
X962149Y270715D02*
X960899Y270715D01*
X962149Y270715D02*
X962149Y266965D01*
X960899Y266965D01*
X960899Y270715D01*
X960899Y268152D02*
X962149Y268152D01*
X962149Y269339D02*
X960899Y269339D01*
X960899Y270526D02*
X962149Y270526D01*
X957149Y270715D02*
X955899Y270715D01*
X957149Y270715D02*
X957149Y266965D01*
X955899Y266965D01*
X955899Y270715D01*
X955899Y268152D02*
X957149Y268152D01*
X957149Y269339D02*
X955899Y269339D01*
X955899Y270526D02*
X957149Y270526D01*
X952149Y270715D02*
X950899Y270715D01*
X952149Y270715D02*
X952149Y266965D01*
X950899Y266965D01*
X950899Y270715D01*
X950899Y268152D02*
X952149Y268152D01*
X952149Y269339D02*
X950899Y269339D01*
X950899Y270526D02*
X952149Y270526D01*
X947149Y270715D02*
X945899Y270715D01*
X947149Y270715D02*
X947149Y266965D01*
X945899Y266965D01*
X945899Y270715D01*
X945899Y268152D02*
X947149Y268152D01*
X947149Y269339D02*
X945899Y269339D01*
X945899Y270526D02*
X947149Y270526D01*
X942149Y270715D02*
X940899Y270715D01*
X942149Y270715D02*
X942149Y266965D01*
X940899Y266965D01*
X940899Y270715D01*
X940899Y268152D02*
X942149Y268152D01*
X942149Y269339D02*
X940899Y269339D01*
X940899Y270526D02*
X942149Y270526D01*
X937149Y270715D02*
X935899Y270715D01*
X937149Y270715D02*
X937149Y266965D01*
X935899Y266965D01*
X935899Y270715D01*
X935899Y268152D02*
X937149Y268152D01*
X937149Y269339D02*
X935899Y269339D01*
X935899Y270526D02*
X937149Y270526D01*
X927149Y261965D02*
X927149Y260715D01*
X927149Y261965D02*
X930899Y261965D01*
X930899Y260715D01*
X927149Y260715D01*
X927149Y261902D02*
X930899Y261902D01*
X927149Y256965D02*
X927149Y255715D01*
X927149Y256965D02*
X930899Y256965D01*
X930899Y255715D01*
X927149Y255715D01*
X927149Y256902D02*
X930899Y256902D01*
X927149Y251965D02*
X927149Y250715D01*
X927149Y251965D02*
X930899Y251965D01*
X930899Y250715D01*
X927149Y250715D01*
X927149Y251902D02*
X930899Y251902D01*
X927149Y246965D02*
X927149Y245715D01*
X927149Y246965D02*
X930899Y246965D01*
X930899Y245715D01*
X927149Y245715D01*
X927149Y246902D02*
X930899Y246902D01*
X927149Y241965D02*
X927149Y240715D01*
X927149Y241965D02*
X930899Y241965D01*
X930899Y240715D01*
X927149Y240715D01*
X927149Y241902D02*
X930899Y241902D01*
X927149Y236965D02*
X927149Y235715D01*
X927149Y236965D02*
X930899Y236965D01*
X930899Y235715D01*
X927149Y235715D01*
X927149Y236902D02*
X930899Y236902D01*
X927149Y231965D02*
X927149Y230715D01*
X927149Y231965D02*
X930899Y231965D01*
X930899Y230715D01*
X927149Y230715D01*
X927149Y231902D02*
X930899Y231902D01*
X927149Y226965D02*
X927149Y225715D01*
X927149Y226965D02*
X930899Y226965D01*
X930899Y225715D01*
X927149Y225715D01*
X927149Y226902D02*
X930899Y226902D01*
X935899Y216965D02*
X937149Y216965D01*
X935899Y216965D02*
X935899Y220715D01*
X937149Y220715D01*
X937149Y216965D01*
X937149Y218152D02*
X935899Y218152D01*
X935899Y219339D02*
X937149Y219339D01*
X937149Y220526D02*
X935899Y220526D01*
X940899Y216965D02*
X942149Y216965D01*
X940899Y216965D02*
X940899Y220715D01*
X942149Y220715D01*
X942149Y216965D01*
X942149Y218152D02*
X940899Y218152D01*
X940899Y219339D02*
X942149Y219339D01*
X942149Y220526D02*
X940899Y220526D01*
X945899Y216965D02*
X947149Y216965D01*
X945899Y216965D02*
X945899Y220715D01*
X947149Y220715D01*
X947149Y216965D01*
X947149Y218152D02*
X945899Y218152D01*
X945899Y219339D02*
X947149Y219339D01*
X947149Y220526D02*
X945899Y220526D01*
X950899Y216965D02*
X952149Y216965D01*
X950899Y216965D02*
X950899Y220715D01*
X952149Y220715D01*
X952149Y216965D01*
X952149Y218152D02*
X950899Y218152D01*
X950899Y219339D02*
X952149Y219339D01*
X952149Y220526D02*
X950899Y220526D01*
X955899Y216965D02*
X957149Y216965D01*
X955899Y216965D02*
X955899Y220715D01*
X957149Y220715D01*
X957149Y216965D01*
X957149Y218152D02*
X955899Y218152D01*
X955899Y219339D02*
X957149Y219339D01*
X957149Y220526D02*
X955899Y220526D01*
X960899Y216965D02*
X962149Y216965D01*
X960899Y216965D02*
X960899Y220715D01*
X962149Y220715D01*
X962149Y216965D01*
X962149Y218152D02*
X960899Y218152D01*
X960899Y219339D02*
X962149Y219339D01*
X962149Y220526D02*
X960899Y220526D01*
X965899Y216965D02*
X967149Y216965D01*
X965899Y216965D02*
X965899Y220715D01*
X967149Y220715D01*
X967149Y216965D01*
X967149Y218152D02*
X965899Y218152D01*
X965899Y219339D02*
X967149Y219339D01*
X967149Y220526D02*
X965899Y220526D01*
X970899Y216965D02*
X972149Y216965D01*
X970899Y216965D02*
X970899Y220715D01*
X972149Y220715D01*
X972149Y216965D01*
X972149Y218152D02*
X970899Y218152D01*
X970899Y219339D02*
X972149Y219339D01*
X972149Y220526D02*
X970899Y220526D01*
X980899Y225715D02*
X980899Y226965D01*
X980899Y225715D02*
X977149Y225715D01*
X977149Y226965D01*
X980899Y226965D01*
X980899Y226902D02*
X977149Y226902D01*
X980899Y230715D02*
X980899Y231965D01*
X980899Y230715D02*
X977149Y230715D01*
X977149Y231965D01*
X980899Y231965D01*
X980899Y231902D02*
X977149Y231902D01*
X980899Y235715D02*
X980899Y236965D01*
X980899Y235715D02*
X977149Y235715D01*
X977149Y236965D01*
X980899Y236965D01*
X980899Y236902D02*
X977149Y236902D01*
X980899Y240715D02*
X980899Y241965D01*
X980899Y240715D02*
X977149Y240715D01*
X977149Y241965D01*
X980899Y241965D01*
X980899Y241902D02*
X977149Y241902D01*
X980899Y245715D02*
X980899Y246965D01*
X980899Y245715D02*
X977149Y245715D01*
X977149Y246965D01*
X980899Y246965D01*
X980899Y246902D02*
X977149Y246902D01*
X980899Y250715D02*
X980899Y251965D01*
X980899Y250715D02*
X977149Y250715D01*
X977149Y251965D01*
X980899Y251965D01*
X980899Y251902D02*
X977149Y251902D01*
X980899Y255715D02*
X980899Y256965D01*
X980899Y255715D02*
X977149Y255715D01*
X977149Y256965D01*
X980899Y256965D01*
X980899Y256902D02*
X977149Y256902D01*
X980899Y260715D02*
X980899Y261965D01*
X980899Y260715D02*
X977149Y260715D01*
X977149Y261965D01*
X980899Y261965D01*
X980899Y261902D02*
X977149Y261902D01*
D14*
X938499Y259365D02*
X938499Y228315D01*
X938499Y259365D02*
X969549Y259365D01*
X969549Y228315D01*
X938499Y228315D01*
X938499Y231592D02*
X969549Y231592D01*
X969549Y234869D02*
X938499Y234869D01*
X938499Y238146D02*
X969549Y238146D01*
X969549Y241423D02*
X938499Y241423D01*
X938499Y244700D02*
X969549Y244700D01*
X969549Y247977D02*
X938499Y247977D01*
X938499Y251254D02*
X969549Y251254D01*
X969549Y254531D02*
X938499Y254531D01*
X938499Y257808D02*
X969549Y257808D01*
D15*
X1006856Y157988D03*
X910336Y157988D03*
D11*
X946880Y126270D02*
X953548Y126270D01*
X953548Y119602D01*
X946880Y119602D01*
X946880Y126270D01*
X946880Y121714D02*
X953548Y121714D01*
X953548Y123826D02*
X946880Y123826D01*
X946880Y125938D02*
X953548Y125938D01*
X938308Y126270D02*
X931640Y126270D01*
X938308Y126270D02*
X938308Y119602D01*
X931640Y119602D01*
X931640Y126270D01*
X931640Y121714D02*
X938308Y121714D01*
X938308Y123826D02*
X931640Y123826D01*
X931640Y125938D02*
X938308Y125938D01*
X968724Y119602D02*
X975392Y119602D01*
X968724Y119602D02*
X968724Y126270D01*
X975392Y126270D01*
X975392Y119602D01*
X975392Y121714D02*
X968724Y121714D01*
X968724Y123826D02*
X975392Y123826D01*
X975392Y125938D02*
X968724Y125938D01*
X983964Y119602D02*
X990632Y119602D01*
X983964Y119602D02*
X983964Y126270D01*
X990632Y126270D01*
X990632Y119602D01*
X990632Y121714D02*
X983964Y121714D01*
X983964Y123826D02*
X990632Y123826D01*
X990632Y125938D02*
X983964Y125938D01*
X953802Y293846D02*
X947134Y293846D01*
X947134Y300514D01*
X953802Y300514D01*
X953802Y293846D01*
X953802Y295958D02*
X947134Y295958D01*
X947134Y298070D02*
X953802Y298070D01*
X953802Y300182D02*
X947134Y300182D01*
X962374Y293846D02*
X969042Y293846D01*
X962374Y293846D02*
X962374Y300514D01*
X969042Y300514D01*
X969042Y293846D01*
X969042Y295958D02*
X962374Y295958D01*
X962374Y298070D02*
X969042Y298070D01*
X969042Y300182D02*
X962374Y300182D01*
D16*
X995000Y448000D03*
X985000Y448000D03*
X975000Y448000D03*
X965000Y448000D03*
D17*
X952000Y484750D03*
X1008000Y484750D03*
D16*
X965000Y52000D03*
X975000Y52000D03*
X985000Y52000D03*
X995000Y52000D03*
D17*
X1008000Y15250D03*
X952000Y15250D03*
D18*
X849884Y446652D03*
X849884Y461652D03*
D11*
X891762Y450374D02*
X891762Y443706D01*
X891762Y450374D02*
X898430Y450374D01*
X898430Y443706D01*
X891762Y443706D01*
X891762Y445818D02*
X898430Y445818D01*
X898430Y447930D02*
X891762Y447930D01*
X891762Y450042D02*
X898430Y450042D01*
X891762Y435134D02*
X891762Y428466D01*
X891762Y435134D02*
X898430Y435134D01*
X898430Y428466D01*
X891762Y428466D01*
X891762Y430578D02*
X898430Y430578D01*
X898430Y432690D02*
X891762Y432690D01*
X891762Y434802D02*
X898430Y434802D01*
X875506Y443706D02*
X875506Y450374D01*
X882174Y450374D01*
X882174Y443706D01*
X875506Y443706D01*
X875506Y445818D02*
X882174Y445818D01*
X882174Y447930D02*
X875506Y447930D01*
X875506Y450042D02*
X882174Y450042D01*
X875506Y435134D02*
X875506Y428466D01*
X875506Y435134D02*
X882174Y435134D01*
X882174Y428466D01*
X875506Y428466D01*
X875506Y430578D02*
X882174Y430578D01*
X882174Y432690D02*
X875506Y432690D01*
X875506Y434802D02*
X882174Y434802D01*
X835438Y443198D02*
X835438Y449866D01*
X835438Y443198D02*
X828770Y443198D01*
X828770Y449866D01*
X835438Y449866D01*
X835438Y445310D02*
X828770Y445310D01*
X828770Y447422D02*
X835438Y447422D01*
X835438Y449534D02*
X828770Y449534D01*
X835438Y458438D02*
X835438Y465106D01*
X835438Y458438D02*
X828770Y458438D01*
X828770Y465106D01*
X835438Y465106D01*
X835438Y460550D02*
X828770Y460550D01*
X828770Y462662D02*
X835438Y462662D01*
X835438Y464774D02*
X828770Y464774D01*
X904208Y293846D02*
X910876Y293846D01*
X904208Y293846D02*
X904208Y300514D01*
X910876Y300514D01*
X910876Y293846D01*
X910876Y295958D02*
X904208Y295958D01*
X904208Y298070D02*
X910876Y298070D01*
X910876Y300182D02*
X904208Y300182D01*
X919448Y293846D02*
X926116Y293846D01*
X919448Y293846D02*
X919448Y300514D01*
X926116Y300514D01*
X926116Y293846D01*
X926116Y295958D02*
X919448Y295958D01*
X919448Y298070D02*
X926116Y298070D01*
X926116Y300182D02*
X919448Y300182D01*
X1022318Y292894D02*
X1028986Y292894D01*
X1028986Y286226D01*
X1022318Y286226D01*
X1022318Y292894D01*
X1022318Y288338D02*
X1028986Y288338D01*
X1028986Y290450D02*
X1022318Y290450D01*
X1022318Y292562D02*
X1028986Y292562D01*
X1013746Y292894D02*
X1007078Y292894D01*
X1013746Y292894D02*
X1013746Y286226D01*
X1007078Y286226D01*
X1007078Y292894D01*
X1007078Y288338D02*
X1013746Y288338D01*
X1013746Y290450D02*
X1007078Y290450D01*
X1007078Y292562D02*
X1013746Y292562D01*
X1022318Y225330D02*
X1028986Y225330D01*
X1028986Y218662D01*
X1022318Y218662D01*
X1022318Y225330D01*
X1022318Y220774D02*
X1028986Y220774D01*
X1028986Y222886D02*
X1022318Y222886D01*
X1022318Y224998D02*
X1028986Y224998D01*
X1013746Y225330D02*
X1007078Y225330D01*
X1013746Y225330D02*
X1013746Y218662D01*
X1007078Y218662D01*
X1007078Y225330D01*
X1007078Y220774D02*
X1013746Y220774D01*
X1013746Y222886D02*
X1007078Y222886D01*
X1007078Y224998D02*
X1013746Y224998D01*
X1022318Y242602D02*
X1028986Y242602D01*
X1028986Y235934D01*
X1022318Y235934D01*
X1022318Y242602D01*
X1022318Y238046D02*
X1028986Y238046D01*
X1028986Y240158D02*
X1022318Y240158D01*
X1022318Y242270D02*
X1028986Y242270D01*
X1013746Y242602D02*
X1007078Y242602D01*
X1013746Y242602D02*
X1013746Y235934D01*
X1007078Y235934D01*
X1007078Y242602D01*
X1007078Y238046D02*
X1013746Y238046D01*
X1013746Y240158D02*
X1007078Y240158D01*
X1007078Y242270D02*
X1013746Y242270D01*
X1022318Y259620D02*
X1028986Y259620D01*
X1028986Y252952D01*
X1022318Y252952D01*
X1022318Y259620D01*
X1022318Y255064D02*
X1028986Y255064D01*
X1028986Y257176D02*
X1022318Y257176D01*
X1022318Y259288D02*
X1028986Y259288D01*
X1013746Y259620D02*
X1007078Y259620D01*
X1013746Y259620D02*
X1013746Y252952D01*
X1007078Y252952D01*
X1007078Y259620D01*
X1007078Y255064D02*
X1013746Y255064D01*
X1013746Y257176D02*
X1007078Y257176D01*
X1007078Y259288D02*
X1013746Y259288D01*
X1013746Y269970D02*
X1007078Y269970D01*
X1007078Y276638D01*
X1013746Y276638D01*
X1013746Y269970D01*
X1013746Y272082D02*
X1007078Y272082D01*
X1007078Y274194D02*
X1013746Y274194D01*
X1013746Y276306D02*
X1007078Y276306D01*
X1022318Y269970D02*
X1028986Y269970D01*
X1022318Y269970D02*
X1022318Y276638D01*
X1028986Y276638D01*
X1028986Y269970D01*
X1028986Y272082D02*
X1022318Y272082D01*
X1022318Y274194D02*
X1028986Y274194D01*
X1028986Y276306D02*
X1022318Y276306D01*
X969042Y315754D02*
X962374Y315754D01*
X969042Y315754D02*
X969042Y309086D01*
X962374Y309086D01*
X962374Y315754D01*
X962374Y311198D02*
X969042Y311198D01*
X969042Y313310D02*
X962374Y313310D01*
X962374Y315422D02*
X969042Y315422D01*
X953802Y315754D02*
X947134Y315754D01*
X953802Y315754D02*
X953802Y309086D01*
X947134Y309086D01*
X947134Y315754D01*
X947134Y311198D02*
X953802Y311198D01*
X953802Y313310D02*
X947134Y313310D01*
X947134Y315422D02*
X953802Y315422D01*
M02*
