G04 EAGLE Gerber RS-274X export*
G75*
%MOMM*%
%FSLAX34Y34*%
%LPD*%
%INSoldermask Top*%
%IPPOS*%
%AMOC8*
5,1,8,0,0,1.08239X$1,22.5*%
G01*
%ADD10C,3.101600*%
%ADD11R,1.401600X1.601600*%
%ADD12C,0.326897*%
%ADD13C,1.101600*%
%ADD14R,0.531600X0.381600*%
%ADD15C,0.225022*%
%ADD16C,0.461706*%
%ADD17R,5.435600X2.032000*%
%ADD18R,0.701600X1.451600*%
%ADD19R,1.301600X2.101600*%
%ADD20R,0.901600X0.901600*%
%ADD21R,1.752600X1.752600*%
%ADD22C,1.752600*%


D10*
X46800Y46800D03*
X46800Y453200D03*
X1062800Y46800D03*
X1062800Y453200D03*
D11*
X863700Y260350D03*
X882700Y260350D03*
X863700Y232410D03*
X882700Y232410D03*
D12*
X749191Y279851D02*
X749191Y286489D01*
X755829Y286489D01*
X755829Y279851D01*
X749191Y279851D01*
X749191Y282957D02*
X755829Y282957D01*
X755829Y286063D02*
X749191Y286063D01*
X749191Y271249D02*
X749191Y264611D01*
X749191Y271249D02*
X755829Y271249D01*
X755829Y264611D01*
X749191Y264611D01*
X749191Y267717D02*
X755829Y267717D01*
X755829Y270823D02*
X749191Y270823D01*
X749191Y234499D02*
X749191Y227861D01*
X749191Y234499D02*
X755829Y234499D01*
X755829Y227861D01*
X749191Y227861D01*
X749191Y230967D02*
X755829Y230967D01*
X755829Y234073D02*
X749191Y234073D01*
X749191Y219259D02*
X749191Y212621D01*
X749191Y219259D02*
X755829Y219259D01*
X755829Y212621D01*
X749191Y212621D01*
X749191Y215727D02*
X755829Y215727D01*
X755829Y218833D02*
X749191Y218833D01*
X769471Y279851D02*
X769471Y286489D01*
X776109Y286489D01*
X776109Y279851D01*
X769471Y279851D01*
X769471Y282957D02*
X776109Y282957D01*
X776109Y286063D02*
X769471Y286063D01*
X769471Y271249D02*
X769471Y264611D01*
X769471Y271249D02*
X776109Y271249D01*
X776109Y264611D01*
X769471Y264611D01*
X769471Y267717D02*
X776109Y267717D01*
X776109Y270823D02*
X769471Y270823D01*
X769471Y234499D02*
X769471Y227861D01*
X769471Y234499D02*
X776109Y234499D01*
X776109Y227861D01*
X769471Y227861D01*
X769471Y230967D02*
X776109Y230967D01*
X776109Y234073D02*
X769471Y234073D01*
X769471Y219259D02*
X769471Y212621D01*
X769471Y219259D02*
X776109Y219259D01*
X776109Y212621D01*
X769471Y212621D01*
X769471Y215727D02*
X776109Y215727D01*
X776109Y218833D02*
X769471Y218833D01*
X728911Y279851D02*
X728911Y286489D01*
X735549Y286489D01*
X735549Y279851D01*
X728911Y279851D01*
X728911Y282957D02*
X735549Y282957D01*
X735549Y286063D02*
X728911Y286063D01*
X728911Y271249D02*
X728911Y264611D01*
X728911Y271249D02*
X735549Y271249D01*
X735549Y264611D01*
X728911Y264611D01*
X728911Y267717D02*
X735549Y267717D01*
X735549Y270823D02*
X728911Y270823D01*
X728911Y234499D02*
X728911Y227861D01*
X728911Y234499D02*
X735549Y234499D01*
X735549Y227861D01*
X728911Y227861D01*
X728911Y230967D02*
X735549Y230967D01*
X735549Y234073D02*
X728911Y234073D01*
X728911Y219259D02*
X728911Y212621D01*
X728911Y219259D02*
X735549Y219259D01*
X735549Y212621D01*
X728911Y212621D01*
X728911Y215727D02*
X735549Y215727D01*
X735549Y218833D02*
X728911Y218833D01*
X708631Y279851D02*
X708631Y286489D01*
X715269Y286489D01*
X715269Y279851D01*
X708631Y279851D01*
X708631Y282957D02*
X715269Y282957D01*
X715269Y286063D02*
X708631Y286063D01*
X708631Y271249D02*
X708631Y264611D01*
X708631Y271249D02*
X715269Y271249D01*
X715269Y264611D01*
X708631Y264611D01*
X708631Y267717D02*
X715269Y267717D01*
X715269Y270823D02*
X708631Y270823D01*
X708631Y234499D02*
X708631Y227861D01*
X708631Y234499D02*
X715269Y234499D01*
X715269Y227861D01*
X708631Y227861D01*
X708631Y230967D02*
X715269Y230967D01*
X715269Y234073D02*
X708631Y234073D01*
X708631Y219259D02*
X708631Y212621D01*
X708631Y219259D02*
X715269Y219259D01*
X715269Y212621D01*
X708631Y212621D01*
X708631Y215727D02*
X715269Y215727D01*
X715269Y218833D02*
X708631Y218833D01*
D13*
X814780Y281760D03*
X814780Y250730D03*
X814780Y219700D03*
X691670Y182870D03*
X691670Y318590D03*
X691710Y250730D03*
D12*
X857649Y182983D02*
X864287Y182983D01*
X857649Y182983D02*
X857649Y189621D01*
X864287Y189621D01*
X864287Y182983D01*
X864287Y186089D02*
X857649Y186089D01*
X857649Y189195D02*
X864287Y189195D01*
X872889Y182983D02*
X879527Y182983D01*
X872889Y182983D02*
X872889Y189621D01*
X879527Y189621D01*
X879527Y182983D01*
X879527Y186089D02*
X872889Y186089D01*
X872889Y189195D02*
X879527Y189195D01*
X879527Y206305D02*
X872889Y206305D01*
X879527Y206305D02*
X879527Y199667D01*
X872889Y199667D01*
X872889Y206305D01*
X872889Y202773D02*
X879527Y202773D01*
X879527Y205879D02*
X872889Y205879D01*
X864287Y206305D02*
X857649Y206305D01*
X864287Y206305D02*
X864287Y199667D01*
X857649Y199667D01*
X857649Y206305D01*
X857649Y202773D02*
X864287Y202773D01*
X864287Y205879D02*
X857649Y205879D01*
X836533Y146777D02*
X836533Y140139D01*
X829895Y140139D01*
X829895Y146777D01*
X836533Y146777D01*
X836533Y143245D02*
X829895Y143245D01*
X829895Y146351D02*
X836533Y146351D01*
X836533Y155379D02*
X836533Y162017D01*
X836533Y155379D02*
X829895Y155379D01*
X829895Y162017D01*
X836533Y162017D01*
X836533Y158485D02*
X829895Y158485D01*
X829895Y161591D02*
X836533Y161591D01*
X818099Y146869D02*
X818099Y140231D01*
X811461Y140231D01*
X811461Y146869D01*
X818099Y146869D01*
X818099Y143337D02*
X811461Y143337D01*
X811461Y146443D02*
X818099Y146443D01*
X818099Y155471D02*
X818099Y162109D01*
X818099Y155471D02*
X811461Y155471D01*
X811461Y162109D01*
X818099Y162109D01*
X818099Y158577D02*
X811461Y158577D01*
X811461Y161683D02*
X818099Y161683D01*
D13*
X814780Y185420D03*
D12*
X688311Y288821D02*
X688311Y295459D01*
X694949Y295459D01*
X694949Y288821D01*
X688311Y288821D01*
X688311Y291927D02*
X694949Y291927D01*
X694949Y295033D02*
X688311Y295033D01*
X688311Y280219D02*
X688311Y273581D01*
X688311Y280219D02*
X694949Y280219D01*
X694949Y273581D01*
X688311Y273581D01*
X688311Y276687D02*
X694949Y276687D01*
X694949Y279793D02*
X688311Y279793D01*
X687081Y228069D02*
X687081Y221431D01*
X687081Y228069D02*
X693719Y228069D01*
X693719Y221431D01*
X687081Y221431D01*
X687081Y224537D02*
X693719Y224537D01*
X693719Y227643D02*
X687081Y227643D01*
X687081Y212829D02*
X687081Y206191D01*
X687081Y212829D02*
X693719Y212829D01*
X693719Y206191D01*
X687081Y206191D01*
X687081Y209297D02*
X693719Y209297D01*
X693719Y212403D02*
X687081Y212403D01*
D14*
X652220Y290820D03*
X652220Y295920D03*
X652220Y228610D03*
X652220Y223510D03*
D12*
X795159Y264611D02*
X795159Y271249D01*
X795159Y264611D02*
X788521Y264611D01*
X788521Y271249D01*
X795159Y271249D01*
X795159Y267717D02*
X788521Y267717D01*
X788521Y270823D02*
X795159Y270823D01*
X795159Y279851D02*
X795159Y286489D01*
X795159Y279851D02*
X788521Y279851D01*
X788521Y286489D01*
X795159Y286489D01*
X795159Y282957D02*
X788521Y282957D01*
X788521Y286063D02*
X795159Y286063D01*
X795159Y219259D02*
X795159Y212621D01*
X788521Y212621D01*
X788521Y219259D01*
X795159Y219259D01*
X795159Y215727D02*
X788521Y215727D01*
X788521Y218833D02*
X795159Y218833D01*
X795159Y227861D02*
X795159Y234499D01*
X795159Y227861D02*
X788521Y227861D01*
X788521Y234499D01*
X795159Y234499D01*
X795159Y230967D02*
X788521Y230967D01*
X788521Y234073D02*
X795159Y234073D01*
D15*
X970891Y270723D02*
X972157Y270723D01*
X972157Y266957D01*
X970891Y266957D01*
X970891Y270723D01*
X970891Y269094D02*
X972157Y269094D01*
X967157Y270723D02*
X965891Y270723D01*
X967157Y270723D02*
X967157Y266957D01*
X965891Y266957D01*
X965891Y270723D01*
X965891Y269094D02*
X967157Y269094D01*
X962157Y270723D02*
X960891Y270723D01*
X962157Y270723D02*
X962157Y266957D01*
X960891Y266957D01*
X960891Y270723D01*
X960891Y269094D02*
X962157Y269094D01*
X957157Y270723D02*
X955891Y270723D01*
X957157Y270723D02*
X957157Y266957D01*
X955891Y266957D01*
X955891Y270723D01*
X955891Y269094D02*
X957157Y269094D01*
X952157Y270723D02*
X950891Y270723D01*
X952157Y270723D02*
X952157Y266957D01*
X950891Y266957D01*
X950891Y270723D01*
X950891Y269094D02*
X952157Y269094D01*
X947157Y270723D02*
X945891Y270723D01*
X947157Y270723D02*
X947157Y266957D01*
X945891Y266957D01*
X945891Y270723D01*
X945891Y269094D02*
X947157Y269094D01*
X942157Y270723D02*
X940891Y270723D01*
X942157Y270723D02*
X942157Y266957D01*
X940891Y266957D01*
X940891Y270723D01*
X940891Y269094D02*
X942157Y269094D01*
X937157Y270723D02*
X935891Y270723D01*
X937157Y270723D02*
X937157Y266957D01*
X935891Y266957D01*
X935891Y270723D01*
X935891Y269094D02*
X937157Y269094D01*
X927141Y261973D02*
X927141Y260707D01*
X927141Y261973D02*
X930907Y261973D01*
X930907Y260707D01*
X927141Y260707D01*
X927141Y256973D02*
X927141Y255707D01*
X927141Y256973D02*
X930907Y256973D01*
X930907Y255707D01*
X927141Y255707D01*
X927141Y251973D02*
X927141Y250707D01*
X927141Y251973D02*
X930907Y251973D01*
X930907Y250707D01*
X927141Y250707D01*
X927141Y246973D02*
X927141Y245707D01*
X927141Y246973D02*
X930907Y246973D01*
X930907Y245707D01*
X927141Y245707D01*
X927141Y241973D02*
X927141Y240707D01*
X927141Y241973D02*
X930907Y241973D01*
X930907Y240707D01*
X927141Y240707D01*
X927141Y236973D02*
X927141Y235707D01*
X927141Y236973D02*
X930907Y236973D01*
X930907Y235707D01*
X927141Y235707D01*
X927141Y231973D02*
X927141Y230707D01*
X927141Y231973D02*
X930907Y231973D01*
X930907Y230707D01*
X927141Y230707D01*
X927141Y226973D02*
X927141Y225707D01*
X927141Y226973D02*
X930907Y226973D01*
X930907Y225707D01*
X927141Y225707D01*
X935891Y216957D02*
X937157Y216957D01*
X935891Y216957D02*
X935891Y220723D01*
X937157Y220723D01*
X937157Y216957D01*
X937157Y219094D02*
X935891Y219094D01*
X940891Y216957D02*
X942157Y216957D01*
X940891Y216957D02*
X940891Y220723D01*
X942157Y220723D01*
X942157Y216957D01*
X942157Y219094D02*
X940891Y219094D01*
X945891Y216957D02*
X947157Y216957D01*
X945891Y216957D02*
X945891Y220723D01*
X947157Y220723D01*
X947157Y216957D01*
X947157Y219094D02*
X945891Y219094D01*
X950891Y216957D02*
X952157Y216957D01*
X950891Y216957D02*
X950891Y220723D01*
X952157Y220723D01*
X952157Y216957D01*
X952157Y219094D02*
X950891Y219094D01*
X955891Y216957D02*
X957157Y216957D01*
X955891Y216957D02*
X955891Y220723D01*
X957157Y220723D01*
X957157Y216957D01*
X957157Y219094D02*
X955891Y219094D01*
X960891Y216957D02*
X962157Y216957D01*
X960891Y216957D02*
X960891Y220723D01*
X962157Y220723D01*
X962157Y216957D01*
X962157Y219094D02*
X960891Y219094D01*
X965891Y216957D02*
X967157Y216957D01*
X965891Y216957D02*
X965891Y220723D01*
X967157Y220723D01*
X967157Y216957D01*
X967157Y219094D02*
X965891Y219094D01*
X970891Y216957D02*
X972157Y216957D01*
X970891Y216957D02*
X970891Y220723D01*
X972157Y220723D01*
X972157Y216957D01*
X972157Y219094D02*
X970891Y219094D01*
X980907Y225707D02*
X980907Y226973D01*
X980907Y225707D02*
X977141Y225707D01*
X977141Y226973D01*
X980907Y226973D01*
X980907Y230707D02*
X980907Y231973D01*
X980907Y230707D02*
X977141Y230707D01*
X977141Y231973D01*
X980907Y231973D01*
X980907Y235707D02*
X980907Y236973D01*
X980907Y235707D02*
X977141Y235707D01*
X977141Y236973D01*
X980907Y236973D01*
X980907Y240707D02*
X980907Y241973D01*
X980907Y240707D02*
X977141Y240707D01*
X977141Y241973D01*
X980907Y241973D01*
X980907Y245707D02*
X980907Y246973D01*
X980907Y245707D02*
X977141Y245707D01*
X977141Y246973D01*
X980907Y246973D01*
X980907Y250707D02*
X980907Y251973D01*
X980907Y250707D02*
X977141Y250707D01*
X977141Y251973D01*
X980907Y251973D01*
X980907Y255707D02*
X980907Y256973D01*
X980907Y255707D02*
X977141Y255707D01*
X977141Y256973D01*
X980907Y256973D01*
X980907Y260707D02*
X980907Y261973D01*
X980907Y260707D02*
X977141Y260707D01*
X977141Y261973D01*
X980907Y261973D01*
D16*
X938574Y259290D02*
X938574Y228390D01*
X938574Y259290D02*
X969474Y259290D01*
X969474Y228390D01*
X938574Y228390D01*
X938574Y232776D02*
X969474Y232776D01*
X969474Y237162D02*
X938574Y237162D01*
X938574Y241548D02*
X969474Y241548D01*
X969474Y245934D02*
X938574Y245934D01*
X938574Y250320D02*
X969474Y250320D01*
X969474Y254706D02*
X938574Y254706D01*
X938574Y259092D02*
X969474Y259092D01*
D17*
X1006856Y157988D03*
X910336Y157988D03*
D12*
X946895Y126255D02*
X953533Y126255D01*
X953533Y119617D01*
X946895Y119617D01*
X946895Y126255D01*
X946895Y122723D02*
X953533Y122723D01*
X953533Y125829D02*
X946895Y125829D01*
X938293Y126255D02*
X931655Y126255D01*
X938293Y126255D02*
X938293Y119617D01*
X931655Y119617D01*
X931655Y126255D01*
X931655Y122723D02*
X938293Y122723D01*
X938293Y125829D02*
X931655Y125829D01*
X968739Y119617D02*
X975377Y119617D01*
X968739Y119617D02*
X968739Y126255D01*
X975377Y126255D01*
X975377Y119617D01*
X975377Y122723D02*
X968739Y122723D01*
X968739Y125829D02*
X975377Y125829D01*
X983979Y119617D02*
X990617Y119617D01*
X983979Y119617D02*
X983979Y126255D01*
X990617Y126255D01*
X990617Y119617D01*
X990617Y122723D02*
X983979Y122723D01*
X983979Y125829D02*
X990617Y125829D01*
X953787Y293861D02*
X947149Y293861D01*
X947149Y300499D01*
X953787Y300499D01*
X953787Y293861D01*
X953787Y296967D02*
X947149Y296967D01*
X947149Y300073D02*
X953787Y300073D01*
X962389Y293861D02*
X969027Y293861D01*
X962389Y293861D02*
X962389Y300499D01*
X969027Y300499D01*
X969027Y293861D01*
X969027Y296967D02*
X962389Y296967D01*
X962389Y300073D02*
X969027Y300073D01*
D18*
X995000Y448000D03*
X985000Y448000D03*
X975000Y448000D03*
X965000Y448000D03*
D19*
X952000Y484750D03*
X1008000Y484750D03*
D18*
X965000Y52000D03*
X975000Y52000D03*
X985000Y52000D03*
X995000Y52000D03*
D19*
X1008000Y15250D03*
X952000Y15250D03*
D20*
X849884Y446652D03*
X849884Y461652D03*
D12*
X891777Y450359D02*
X891777Y443721D01*
X891777Y450359D02*
X898415Y450359D01*
X898415Y443721D01*
X891777Y443721D01*
X891777Y446827D02*
X898415Y446827D01*
X898415Y449933D02*
X891777Y449933D01*
X891777Y435119D02*
X891777Y428481D01*
X891777Y435119D02*
X898415Y435119D01*
X898415Y428481D01*
X891777Y428481D01*
X891777Y431587D02*
X898415Y431587D01*
X898415Y434693D02*
X891777Y434693D01*
X875521Y443721D02*
X875521Y450359D01*
X882159Y450359D01*
X882159Y443721D01*
X875521Y443721D01*
X875521Y446827D02*
X882159Y446827D01*
X882159Y449933D02*
X875521Y449933D01*
X875521Y435119D02*
X875521Y428481D01*
X875521Y435119D02*
X882159Y435119D01*
X882159Y428481D01*
X875521Y428481D01*
X875521Y431587D02*
X882159Y431587D01*
X882159Y434693D02*
X875521Y434693D01*
X835423Y443213D02*
X835423Y449851D01*
X835423Y443213D02*
X828785Y443213D01*
X828785Y449851D01*
X835423Y449851D01*
X835423Y446319D02*
X828785Y446319D01*
X828785Y449425D02*
X835423Y449425D01*
X835423Y458453D02*
X835423Y465091D01*
X835423Y458453D02*
X828785Y458453D01*
X828785Y465091D01*
X835423Y465091D01*
X835423Y461559D02*
X828785Y461559D01*
X828785Y464665D02*
X835423Y464665D01*
X904223Y293861D02*
X910861Y293861D01*
X904223Y293861D02*
X904223Y300499D01*
X910861Y300499D01*
X910861Y293861D01*
X910861Y296967D02*
X904223Y296967D01*
X904223Y300073D02*
X910861Y300073D01*
X919463Y293861D02*
X926101Y293861D01*
X919463Y293861D02*
X919463Y300499D01*
X926101Y300499D01*
X926101Y293861D01*
X926101Y296967D02*
X919463Y296967D01*
X919463Y300073D02*
X926101Y300073D01*
X1022333Y292879D02*
X1028971Y292879D01*
X1028971Y286241D01*
X1022333Y286241D01*
X1022333Y292879D01*
X1022333Y289347D02*
X1028971Y289347D01*
X1028971Y292453D02*
X1022333Y292453D01*
X1013731Y292879D02*
X1007093Y292879D01*
X1013731Y292879D02*
X1013731Y286241D01*
X1007093Y286241D01*
X1007093Y292879D01*
X1007093Y289347D02*
X1013731Y289347D01*
X1013731Y292453D02*
X1007093Y292453D01*
X1022333Y225315D02*
X1028971Y225315D01*
X1028971Y218677D01*
X1022333Y218677D01*
X1022333Y225315D01*
X1022333Y221783D02*
X1028971Y221783D01*
X1028971Y224889D02*
X1022333Y224889D01*
X1013731Y225315D02*
X1007093Y225315D01*
X1013731Y225315D02*
X1013731Y218677D01*
X1007093Y218677D01*
X1007093Y225315D01*
X1007093Y221783D02*
X1013731Y221783D01*
X1013731Y224889D02*
X1007093Y224889D01*
X1022333Y242587D02*
X1028971Y242587D01*
X1028971Y235949D01*
X1022333Y235949D01*
X1022333Y242587D01*
X1022333Y239055D02*
X1028971Y239055D01*
X1028971Y242161D02*
X1022333Y242161D01*
X1013731Y242587D02*
X1007093Y242587D01*
X1013731Y242587D02*
X1013731Y235949D01*
X1007093Y235949D01*
X1007093Y242587D01*
X1007093Y239055D02*
X1013731Y239055D01*
X1013731Y242161D02*
X1007093Y242161D01*
X1022333Y259605D02*
X1028971Y259605D01*
X1028971Y252967D01*
X1022333Y252967D01*
X1022333Y259605D01*
X1022333Y256073D02*
X1028971Y256073D01*
X1028971Y259179D02*
X1022333Y259179D01*
X1013731Y259605D02*
X1007093Y259605D01*
X1013731Y259605D02*
X1013731Y252967D01*
X1007093Y252967D01*
X1007093Y259605D01*
X1007093Y256073D02*
X1013731Y256073D01*
X1013731Y259179D02*
X1007093Y259179D01*
X1007093Y269985D02*
X1013731Y269985D01*
X1007093Y269985D02*
X1007093Y276623D01*
X1013731Y276623D01*
X1013731Y269985D01*
X1013731Y273091D02*
X1007093Y273091D01*
X1007093Y276197D02*
X1013731Y276197D01*
X1022333Y269985D02*
X1028971Y269985D01*
X1022333Y269985D02*
X1022333Y276623D01*
X1028971Y276623D01*
X1028971Y269985D01*
X1028971Y273091D02*
X1022333Y273091D01*
X1022333Y276197D02*
X1028971Y276197D01*
D21*
X1094600Y338900D03*
D22*
X1094600Y313500D03*
X1094600Y288100D03*
X1094600Y262700D03*
X1094600Y237300D03*
X1094600Y211900D03*
X1094600Y186500D03*
X1094600Y161100D03*
D12*
X969027Y315739D02*
X962389Y315739D01*
X969027Y315739D02*
X969027Y309101D01*
X962389Y309101D01*
X962389Y315739D01*
X962389Y312207D02*
X969027Y312207D01*
X969027Y315313D02*
X962389Y315313D01*
X953787Y315739D02*
X947149Y315739D01*
X953787Y315739D02*
X953787Y309101D01*
X947149Y309101D01*
X947149Y315739D01*
X947149Y312207D02*
X953787Y312207D01*
X953787Y315313D02*
X947149Y315313D01*
M02*
